<?xml version="1.0" encoding="utf-8"?>
<!-- Generator: Adobe Illustrator 16.2.1, SVG Export Plug-In . SVG Version: 6.00 Build 0)  -->
<!DOCTYPE svg PUBLIC "-//W3C//DTD SVG 1.1//EN" "http://www.w3.org/Graphics/SVG/1.1/DTD/svg11.dtd">
<svg version="1.1" id="_x31_1_1_" xmlns="http://www.w3.org/2000/svg" xmlns:xlink="http://www.w3.org/1999/xlink" x="0px" y="0px"
	 width="100px" height="154px" viewBox="0 0 100 154" enable-background="new 0 0 100 154" xml:space="preserve">
<rect y="28" fill="#D92632" width="100" height="126"/>
<g>
	<path fill="#FFFFFF" d="M17.69,86.864c0,0.85,0.023,4.438,0.023,6.302c0,2.078,0,5.288-0.023,6.515
		c-0.071,2.078-0.826,3.14-2.549,3.14s-2.455-0.991-2.502-3.092c-0.024-0.52-0.024-4.509-0.024-6.539c0-1.747,0-5.618,0.024-6.255
		c0.047-2.172,0.779-3.234,2.502-3.234C16.793,83.701,17.619,84.669,17.69,86.864z M16.156,99.965
		c0.047-0.826,0.047-5.311,0.047-6.751c0-1.274,0-5.712-0.023-6.468c-0.023-1.086-0.26-1.558-1.015-1.558
		c-0.85,0-1.015,0.614-1.015,1.582c0,0.779-0.024,5.146-0.024,6.515c0,1.44,0,5.878,0.024,6.68c0.023,0.803,0.236,1.393,1.039,1.393
		C15.896,101.358,16.108,100.72,16.156,99.965z"/>
	<path fill="#FFFFFF" d="M22.197,102.68l-1.841-12.251v12.251h-1.322V83.795h1.582l1.889,13.361V83.795h1.345v18.884H22.197z"/>
	<path fill="#FFFFFF" d="M34.989,102.68h-1.747c0,0-1.18-12.605-1.204-15.084c-0.024,2.479-1.204,15.084-1.204,15.084h-1.723
		L27.53,83.795h1.463c0,0,1.039,13.502,1.039,15.863c0-2.36,1.275-15.863,1.275-15.863h1.463c0,0,1.275,13.526,1.275,15.863
		c0-2.337,1.109-15.863,1.109-15.863h1.44L34.989,102.68z"/>
	<path fill="#FFFFFF" d="M37.489,102.68V83.795h4.226v1.417h-2.762v7.223h2.431v1.416h-2.431v7.412h2.785v1.417H37.489z"/>
	<path fill="#FFFFFF" d="M45.514,102.68h-2.88V83.795h2.715c1.015,0,1.841,0.449,2.03,1.463c0.095,0.52,0.142,2.219,0.142,3.14
		c0,0.968-0.047,2.691-0.118,3.187c-0.118,0.874-0.378,1.346-0.992,1.511c0.614,0.118,0.944,0.543,1.062,1.298
		c0.118,0.685,0.142,2.172,0.142,3.116c0,1.133,0.047,2.88-0.142,3.588C47.19,102.16,46.765,102.68,45.514,102.68z M45.986,86.297
		c0-0.637-0.377-1.085-0.92-1.085h-0.992v7.271h1.298c0.26,0,0.59-0.236,0.614-0.874c0.023-0.378,0.023-1.771,0.023-2.904
		C46.009,87.714,45.986,86.723,45.986,86.297z M46.08,97.321c0-0.755-0.023-2.148-0.047-2.62c-0.024-0.637-0.307-0.874-0.638-0.874
		h-1.322v7.459h1.298c0.401,0,0.661-0.236,0.685-0.874C46.08,99.918,46.08,98.029,46.08,97.321z"/>
	<path fill="#FFFFFF" d="M15.33,106.212v17.468h-1.487v-17.468h-1.676v-1.417h4.863v1.417H15.33z"/>
	<path fill="#FFFFFF" d="M20.993,116.646v7.034h-1.535v-6.963l-2.148-11.921h1.487c0,0,1.44,8.498,1.463,9.489
		c0.023-1.015,1.534-9.489,1.534-9.489h1.511L20.993,116.646z"/>
	<path fill="#FFFFFF" d="M28.262,114.733c-0.401,0.614-0.944,0.944-1.747,1.039c-0.401,0.047-0.873,0.023-0.873,0.023v7.884h-1.464
		v-18.884h2.384c0.826,0,1.346,0.377,1.747,1.062c0.378,0.59,0.614,2.125,0.614,4.461S28.758,113.978,28.262,114.733z
		 M27.082,107.014c-0.26-0.614-0.614-0.755-0.921-0.755h-0.519v8.121c0,0,0.259,0,0.448,0c0.661-0.024,0.85-0.378,1.039-0.826
		c0.189-0.449,0.283-1.369,0.283-3.187C27.412,108.549,27.247,107.392,27.082,107.014z"/>
	<path fill="#FFFFFF" d="M35.035,107.864c0,0.85,0.023,4.438,0.023,6.302c0,2.078,0,5.288-0.023,6.515
		c-0.071,2.078-0.826,3.14-2.549,3.14s-2.455-0.991-2.502-3.092c-0.024-0.52-0.024-4.509-0.024-6.539c0-1.747,0-5.618,0.024-6.255
		c0.047-2.172,0.779-3.234,2.502-3.234C34.138,104.701,34.964,105.669,35.035,107.864z M33.501,120.965
		c0.047-0.826,0.047-5.311,0.047-6.751c0-1.274,0-5.712-0.023-6.468c-0.023-1.086-0.26-1.558-1.015-1.558
		c-0.85,0-1.015,0.614-1.015,1.582c0,0.779-0.024,5.146-0.024,6.515c0,1.44,0,5.878,0.024,6.68c0.023,0.803,0.236,1.393,1.039,1.393
		C33.241,122.358,33.454,121.72,33.501,120.965z"/>
	<path fill="#FFFFFF" d="M40.062,123.68l-0.071-0.661c-0.236,0.52-0.874,0.779-1.463,0.779c-1.298,0-2.148-0.732-2.219-2.455
		c-0.023-0.52-0.071-5.358-0.071-7.105c0-1.747-0.023-5.264,0.047-6.774c0.047-1.582,0.803-2.786,2.384-2.786
		c1.676,0,2.219,1.228,2.29,2.361c0.023,0.897,0,3.635,0,3.635h-1.44c0,0,0-1.865,0-3.187c0-0.968-0.307-1.274-0.85-1.274
		c-0.52,0-0.897,0.377-0.897,1.393c0,1.133-0.024,5.406-0.024,6.657c0,0.944,0.024,5.925,0.024,6.728c0,0.92,0.283,1.393,0.92,1.393
		c0.59,0,0.92-0.425,0.92-1.298c0-0.59,0-5.996,0-5.996h-1.227v-1.417h2.644c0,0,0,4.58,0,5.783c0,2.148,0.023,4.226,0.023,4.226
		H40.062z"/>
	<path fill="#FFFFFF" d="M46.623,113.104c-0.165,0.472-0.519,1.086-0.826,1.204l1.535,9.371h-1.535l-1.345-8.923l-0.732,0.023v8.899
		h-1.417v-18.884h2.243c1.298,0,1.912,0.708,2.195,1.959c0.118,0.542,0.189,1.652,0.189,3.139
		C46.93,111.452,46.835,112.42,46.623,113.104z M45.301,107.439c-0.047-0.708-0.354-1.228-0.874-1.228h-0.685c0,0,0,6.704,0,7.176
		c0.024,0,0.543,0,0.755-0.047c0.401-0.047,0.566-0.354,0.661-0.661c0.165-0.449,0.236-1.818,0.236-2.549
		C45.395,109.163,45.324,107.675,45.301,107.439z"/>
	<path fill="#FFFFFF" d="M49.1,123.68h-1.44l1.959-18.884h1.959l1.534,18.884h-1.463c0,0-0.26-4.083-0.283-4.603
		c0,0-1.889,0-1.912,0C49.454,119.596,49.1,123.68,49.1,123.68z M50.634,110.154c0-0.472-0.118-3.612-0.118-3.612
		s-0.142,3.116-0.166,3.588c-0.047,0.661-0.755,7.53-0.755,7.53h1.676C51.271,117.66,50.634,110.626,50.634,110.154z"/>
	<path fill="#FFFFFF" d="M58.068,114.733c-0.401,0.614-0.944,0.944-1.747,1.039c-0.401,0.047-0.873,0.023-0.873,0.023v7.884h-1.464
		v-18.884h2.384c0.826,0,1.346,0.377,1.747,1.062c0.378,0.59,0.614,2.125,0.614,4.461S58.563,113.978,58.068,114.733z
		 M56.888,107.014c-0.26-0.614-0.614-0.755-0.921-0.755h-0.519v8.121c0,0,0.259,0,0.448,0c0.661-0.024,0.85-0.378,1.039-0.826
		c0.189-0.449,0.283-1.369,0.283-3.187C57.218,108.549,57.053,107.392,56.888,107.014z"/>
	<path fill="#FFFFFF" d="M63.283,123.68v-8.829h-1.912v8.829h-1.464v-18.884h1.464v8.64h1.912v-8.64h1.464v18.884H63.283z"/>
	<path fill="#FFFFFF" d="M69.301,116.646v7.034h-1.535v-6.963l-2.148-11.921h1.487c0,0,1.44,8.498,1.463,9.489
		c0.023-1.015,1.534-9.489,1.534-9.489h1.511L69.301,116.646z"/>
</g>
<rect fill="#FFFFFF" width="100" height="28"/>
<path fill="#231F20" d="M81,38c5.523,0,10-4.478,10-10s-4.477-10-10-10c-5.522,0-10,4.478-10,10S75.478,38,81,38"/>
<g>
	<g>
		<path fill="#ECE6D4" d="M17,17.624c0,1.38-1.12,2.499-2.5,2.499c-1.38,0-2.5-1.119-2.5-2.499c0-1.381,1.119-2.5,2.5-2.5
			C15.88,15.124,17,16.243,17,17.624"/>
		<g>
			<path fill="#8E7F33" d="M13.369,18.736c-0.19-0.154-0.373-0.245-0.639-0.169c0.044,0.139,0.116,0.256,0.273,0.36
				c0.298,0.2,0.691,0.242,0.691,0.242S13.648,18.963,13.369,18.736"/>
			<path fill="#8E7F33" d="M15.196,17.349c-0.536,0.164-0.784,0.478-1.036,0.851c0.189,0.044,0.924,0.06,1.227-0.027
				c0.723-0.208,1.182-0.925,1.182-0.925S15.832,17.153,15.196,17.349"/>
			<path fill="#8E7F33" d="M14.287,18.361c-0.415-0.101-0.639,0.043-0.896,0.23c0.193,0.112,0.544,0.27,0.778,0.325
				c0.492,0.117,1.09-0.066,1.09-0.066S14.779,18.479,14.287,18.361"/>
			<path fill="#8E7F33" d="M15.696,16.341c-0.17,0.569-0.616,0.785-0.987,0.98c0.008-0.308,0.017-0.841,0.113-1.161
				c0.203-0.675,0.856-1.283,0.856-1.283S15.899,15.665,15.696,16.341"/>
			<path fill="#8E7F33" d="M14.435,17.36c-0.067,0.378-0.323,0.554-0.495,0.709c-0.021-0.197-0.011-0.58,0.027-0.792
				c0.08-0.448,0.428-0.886,0.428-0.886S14.515,16.912,14.435,17.36"/>
			<path fill="#8E7F33" d="M13.734,17.98c-0.053,0.28-0.219,0.361-0.391,0.466c-0.013-0.148-0.007-0.406,0.023-0.563
				c0.063-0.333,0.322-0.647,0.322-0.647S13.798,17.648,13.734,17.98"/>
		</g>
	</g>
	<g>
		<path fill="#241F21" d="M20.241,16.899l-0.099-0.345l-0.109,0.345l-0.332,0.785h0.862L20.241,16.899z M20.645,18.954
			c-0.009-0.032-0.013-0.067-0.013-0.104c0-0.036,0.004-0.068,0.013-0.104h0.363l-0.35-0.839h-1.053l-0.281,0.676l0.068,0.163h0.25
			c0.009,0.032,0.014,0.068,0.014,0.104c0,0.037-0.004,0.072-0.014,0.104h-0.875c-0.009-0.032-0.014-0.067-0.014-0.104
			c0-0.042,0.004-0.068,0.014-0.104h0.2l1.18-2.727h0.19l1.148,2.727h0.232c0.009,0.032,0.014,0.068,0.014,0.104
			c0,0.037-0.005,0.072-0.014,0.104H20.645z"/>
		<path fill="#241F21" d="M24.912,18.75c0.399,0,0.608-0.196,0.608-0.567c0-0.377-0.218-0.599-0.685-0.599h-0.322v1.144
			C24.58,18.736,24.821,18.75,24.912,18.75 M25.075,17.379c0.159-0.072,0.295-0.291,0.295-0.576c0-0.354-0.186-0.531-0.549-0.531
			h-0.308v1.107H25.075z M23.691,18.954c-0.009-0.032-0.014-0.067-0.014-0.104c0-0.036,0.005-0.068,0.014-0.104h0.372v-2.473h-0.372
			c-0.009-0.036-0.014-0.068-0.014-0.104c0-0.037,0.005-0.073,0.014-0.104h1.193c0.641,0,0.967,0.254,0.967,0.721
			c0,0.304-0.213,0.545-0.485,0.631l-0.191,0.045l0.191,0.019c0.408,0.068,0.64,0.331,0.64,0.689c0,0.535-0.458,0.785-1.125,0.785
			H23.691z"/>
		<path fill="#241F21" d="M29.055,17.479c0-0.786-0.417-1.234-0.984-1.234c-0.577,0-1.008,0.44-1.008,1.293
			c0,0.786,0.417,1.234,0.984,1.234C28.624,18.772,29.055,18.333,29.055,17.479 M26.555,17.538c0-0.903,0.734-1.52,1.516-1.52
			c0.803,0,1.493,0.558,1.493,1.461c0,0.903-0.735,1.521-1.516,1.521C27.245,19,26.555,18.442,26.555,17.538"/>
		<path fill="#241F21" d="M32.446,17.479c0-0.786-0.417-1.234-0.985-1.234c-0.576,0-1.008,0.44-1.008,1.293
			c0,0.786,0.418,1.234,0.985,1.234C32.015,18.772,32.446,18.333,32.446,17.479 M29.945,17.538c0-0.903,0.735-1.52,1.516-1.52
			c0.803,0,1.493,0.558,1.493,1.461c0,0.903-0.735,1.521-1.516,1.521C30.636,19,29.945,18.442,29.945,17.538"/>
		<path fill="#241F21" d="M35.496,18.936v-0.063l-1.089-1.257l-0.163-0.046v1.158h0.336c0.009,0.032,0.013,0.068,0.013,0.104
			s-0.004,0.072-0.013,0.104h-1.157c-0.009-0.032-0.014-0.067-0.014-0.104s0.004-0.068,0.014-0.104h0.372v-2.473h-0.372
			c-0.009-0.037-0.014-0.068-0.014-0.105c0-0.036,0.004-0.072,0.014-0.104h1.157c0.009,0.031,0.013,0.067,0.013,0.104
			c0,0.037-0.004,0.068-0.013,0.105h-0.336v1.13h0.163l0.994-0.98l-0.032-0.149h-0.24c-0.009-0.037-0.014-0.068-0.014-0.105
			c0-0.036,0.005-0.067,0.014-0.104H36.1c0.009,0.036,0.014,0.067,0.014,0.104c0,0.037-0.005,0.068-0.014,0.105h-0.223l-1.139,1.08
			l1.212,1.393h0.254c0.009,0.036,0.013,0.068,0.013,0.104s-0.004,0.072-0.013,0.104H35.496z"/>
		<path fill="#241F21" d="M39.5,16.881l-0.101-0.345l-0.109,0.345l-0.331,0.785h0.862L39.5,16.881z M39.903,18.936
			c-0.009-0.032-0.013-0.067-0.013-0.104s0.004-0.068,0.013-0.104h0.363l-0.349-0.84h-1.053l-0.282,0.676l0.068,0.164h0.25
			c0.009,0.032,0.014,0.068,0.014,0.104s-0.005,0.072-0.014,0.104h-0.876c-0.009-0.032-0.014-0.067-0.014-0.104
			c0-0.042,0.004-0.068,0.014-0.104h0.2L39.404,16h0.19l1.149,2.728h0.231c0.009,0.032,0.013,0.068,0.013,0.104
			s-0.004,0.072-0.013,0.104H39.903z"/>
		<path fill="#241F21" d="M42.191,17.534h0.335c0.373,0,0.594-0.227,0.594-0.662c0-0.426-0.204-0.617-0.594-0.617h-0.335V17.534z
			 M41.369,18.936c-0.009-0.032-0.013-0.067-0.013-0.104c0-0.042,0.004-0.068,0.013-0.104h0.373v-2.473h-0.373
			c-0.009-0.037-0.013-0.068-0.013-0.105c0-0.036,0.004-0.072,0.013-0.104h1.221c0.657,0,1.017,0.317,1.017,0.826
			c0,0.513-0.396,0.871-1.081,0.871h-0.335v0.985h0.413c0.009,0.032,0.014,0.068,0.014,0.104s-0.005,0.072-0.014,0.104H41.369z"/>
		<path fill="#241F21" d="M45.159,16.881l-0.1-0.345l-0.109,0.345l-0.332,0.785h0.862L45.159,16.881z M45.563,18.936
			c-0.009-0.032-0.014-0.067-0.014-0.104s0.005-0.068,0.014-0.104h0.363l-0.35-0.84h-1.053l-0.281,0.676l0.068,0.164h0.25
			c0.008,0.032,0.014,0.068,0.014,0.104s-0.005,0.072-0.014,0.104h-0.876c-0.009-0.032-0.014-0.067-0.014-0.104
			c0-0.042,0.004-0.068,0.014-0.104h0.2L45.064,16h0.19l1.148,2.728h0.231c0.009,0.032,0.014,0.068,0.014,0.104
			s-0.005,0.072-0.014,0.104H45.563z"/>
		<path fill="#241F21" d="M48.323,17.488c0.246-0.091,0.445-0.272,0.445-0.644c0-0.423-0.186-0.59-0.577-0.59h-0.34v1.234H48.323z
			 M49.049,18.936v-0.063l-0.858-1.152l-0.34-0.05v1.058H48.2c0.009,0.032,0.013,0.068,0.013,0.104s-0.004,0.072-0.013,0.104h-1.17
			c-0.009-0.032-0.014-0.067-0.014-0.104c0-0.042,0.004-0.068,0.014-0.104h0.372v-2.473H47.03c-0.009-0.037-0.014-0.068-0.014-0.105
			c0-0.036,0.004-0.072,0.014-0.104h1.225c0.64,0,0.989,0.281,0.989,0.789c0,0.359-0.28,0.695-0.744,0.776
			c0.145,0.1,0.286,0.231,0.399,0.396l0.581,0.721h0.205c0.009,0.032,0.013,0.068,0.013,0.104s-0.004,0.072-0.013,0.104H49.049z"/>
		<path fill="#241F21" d="M52.394,16.046h-2.482l-0.068,0.558h0.245l0.118-0.227c0.041-0.082,0.059-0.113,0.1-0.122h0.621v2.473
			h-0.372c-0.009,0.036-0.014,0.063-0.014,0.104c0,0.037,0.005,0.073,0.014,0.104h1.193c0.009-0.032,0.014-0.068,0.014-0.104
			c0-0.036-0.005-0.072-0.014-0.104h-0.373v-2.473h0.622c0.041,0.009,0.059,0.041,0.1,0.122l0.118,0.227h0.245L52.394,16.046z"/>
	</g>
</g>
<rect x="12" y="80.5" width="72" height="0.5"/>
<rect x="12" y="127" width="72" height="0.5"/>
<g>
	<path fill="#FFFFFF" d="M76.827,32.186c-0.026-0.091-0.039-0.195-0.039-0.299c0-0.117,0.013-0.195,0.039-0.299h1.404v-7.033h-1.378
		c-0.026-0.104-0.039-0.195-0.039-0.299s0.013-0.208,0.039-0.299h0.78l1.729-0.182l0.091,0.117l-0.078,0.923v6.773h1.105
		c0.026,0.091,0.039,0.195,0.039,0.299s-0.013,0.208-0.039,0.299H76.827z"/>
	<path fill="#FFFFFF" d="M81.845,32.186c-0.026-0.091-0.039-0.195-0.039-0.299c0-0.117,0.013-0.195,0.039-0.299h1.404v-7.033h-1.378
		c-0.026-0.104-0.039-0.195-0.039-0.299s0.013-0.208,0.039-0.299h0.78l1.729-0.182l0.091,0.117l-0.078,0.923v6.773h1.105
		c0.026,0.091,0.039,0.195,0.039,0.299s-0.013,0.208-0.039,0.299H81.845z"/>
</g>
<g>
	<path fill="#FFFFFF" d="M12,78.126l0.25-1.111v-2.812H11.9c-0.01-0.04-0.015-0.1-0.015-0.14s0.005-0.105,0.015-0.14h1.416
		c0.01,0.035,0.015,0.1,0.015,0.14s-0.005,0.105-0.015,0.14h-0.35v2.372c0,0.365-0.045,0.616-0.286,0.956l-0.42,0.596H12z"/>
	<path fill="#FFFFFF" d="M14.186,77.16c-0.35,0-0.581-0.195-0.581-0.531c0-0.491,0.561-0.701,1.166-0.75v-0.611
		c-0.05-0.1-0.215-0.18-0.396-0.18c-0.035,0-0.07,0.005-0.085,0.01l-0.105,0.606h-0.165c-0.28,0-0.396-0.08-0.396-0.265
		c0-0.301,0.451-0.606,1.031-0.606c0.466,0,0.771,0.24,0.771,0.706c0,0.075-0.035,1.136-0.035,1.247
		c0.04,0.025,0.09,0.04,0.155,0.04c0.06,0,0.115-0.02,0.16-0.065l0.025,0.18c-0.065,0.125-0.225,0.221-0.385,0.221
		c-0.22,0-0.396-0.075-0.545-0.275C14.566,77.105,14.376,77.16,14.186,77.16z M14.771,76.059l-0.23,0.065
		c-0.23,0.06-0.305,0.165-0.305,0.365c0,0.21,0.09,0.305,0.3,0.305c0.075,0,0.181-0.02,0.235-0.045V76.059z"/>
	<path fill="#FFFFFF" d="M15.9,77.145v-0.621l0.315-0.04l0.06,0.24c0.09,0.07,0.246,0.115,0.4,0.115c0.21,0,0.326-0.08,0.326-0.25
		c0-0.396-1.086-0.24-1.086-1.046c0-0.4,0.345-0.696,0.801-0.696c0.21,0,0.385,0.075,0.471,0.175l0.02-0.175h0.34v0.57l-0.32,0.045
		l-0.06-0.225c-0.07-0.05-0.205-0.08-0.335-0.08c-0.195,0-0.305,0.07-0.305,0.215c0,0.365,1.086,0.22,1.086,1.051
		c0,0.425-0.351,0.721-0.861,0.721c-0.2,0-0.38-0.055-0.496-0.175l-0.02,0.175H15.9z"/>
	<path fill="#FFFFFF" d="M17.875,75.994c0-0.69,0.561-1.161,1.226-1.161c0.711,0,1.216,0.456,1.216,1.167
		c0,0.69-0.561,1.161-1.231,1.161C18.381,77.16,17.875,76.705,17.875,75.994z M19.102,75.143c-0.305,0-0.49,0.27-0.49,0.851
		c0,0.536,0.155,0.856,0.475,0.856c0.305,0,0.496-0.271,0.496-0.851C19.582,75.463,19.422,75.143,19.102,75.143z"/>
	<path fill="#FFFFFF" d="M22.062,77.11c-0.01-0.035-0.015-0.085-0.015-0.14s0.005-0.09,0.015-0.13h0.24v-1.422
		c-0.075-0.095-0.205-0.13-0.33-0.13c-0.145,0-0.325,0.05-0.476,0.14v1.412h0.24c0.01,0.04,0.015,0.08,0.015,0.13
		c0,0.055-0.005,0.105-0.015,0.14H20.54c-0.01-0.035-0.015-0.085-0.015-0.14s0.005-0.09,0.015-0.13h0.291v-1.412l-0.28-0.315v-0.085
		l0.781-0.195h0.08l0.065,0.446c0.291-0.341,0.545-0.446,0.831-0.446c0.355,0,0.661,0.18,0.661,0.676v1.332h0.285
		c0.01,0.04,0.015,0.075,0.015,0.13s-0.005,0.105-0.015,0.14H22.062z"/>
	<path fill="#FFFFFF" d="M24.811,77.16l-0.07-0.671l0.335-0.055l0.18,0.326c0.11,0.05,0.271,0.08,0.451,0.08
		c0.345,0,0.561-0.17,0.561-0.451c0-0.63-1.412-0.521-1.412-1.551c0-0.571,0.431-0.966,1.051-0.966c0.195,0,0.39,0.06,0.496,0.14
		l0.05-0.14h0.37v0.661l-0.335,0.055l-0.146-0.32c-0.08-0.045-0.23-0.075-0.37-0.075c-0.305,0-0.5,0.16-0.5,0.431
		c0,0.565,1.412,0.48,1.412,1.551c0,0.596-0.496,0.986-1.116,0.986c-0.22,0-0.411-0.055-0.541-0.141l-0.045,0.141H24.811z"/>
	<path fill="#FFFFFF" d="M27.906,77.16c-0.351,0-0.581-0.195-0.581-0.531c0-0.491,0.561-0.701,1.166-0.75v-0.611
		c-0.05-0.1-0.215-0.18-0.395-0.18c-0.035,0-0.07,0.005-0.085,0.01l-0.105,0.606h-0.165c-0.28,0-0.396-0.08-0.396-0.265
		c0-0.301,0.45-0.606,1.031-0.606c0.465,0,0.771,0.24,0.771,0.706c0,0.075-0.035,1.136-0.035,1.247c0.04,0.025,0.09,0.04,0.155,0.04
		c0.06,0,0.115-0.02,0.16-0.065l0.025,0.18c-0.065,0.125-0.225,0.221-0.385,0.221c-0.22,0-0.396-0.075-0.545-0.275
		C28.287,77.105,28.097,77.16,27.906,77.16z M28.492,76.059l-0.23,0.065c-0.23,0.06-0.306,0.165-0.306,0.365
		c0,0.21,0.09,0.305,0.301,0.305c0.075,0,0.18-0.02,0.235-0.045V76.059z"/>
	<path fill="#FFFFFF" d="M31.082,77.11c-0.01-0.035-0.015-0.085-0.015-0.14s0.005-0.09,0.015-0.13h0.24v-1.422
		c-0.075-0.095-0.205-0.13-0.33-0.13c-0.145,0-0.325,0.05-0.476,0.14v1.412h0.24c0.01,0.04,0.015,0.08,0.015,0.13
		c0,0.055-0.005,0.105-0.015,0.14h-1.196c-0.01-0.035-0.015-0.085-0.015-0.14s0.005-0.09,0.015-0.13h0.291v-1.412l-0.28-0.315
		v-0.085l0.781-0.195h0.08l0.065,0.446c0.291-0.341,0.545-0.446,0.831-0.446c0.355,0,0.661,0.18,0.661,0.676v1.332h0.285
		c0.01,0.04,0.015,0.075,0.015,0.13s-0.005,0.105-0.015,0.14H31.082z"/>
	<path fill="#FFFFFF" d="M33.267,77.16c-0.365,0-0.61-0.206-0.61-0.556v-1.437h-0.311c-0.01-0.045-0.015-0.085-0.015-0.14
		c0-0.05,0.005-0.1,0.015-0.145h0.311v-0.445l0.666-0.186v0.631h0.55c0.01,0.045,0.015,0.095,0.015,0.145
		c0,0.06-0.005,0.095-0.015,0.14h-0.55v1.481c0.04,0.065,0.125,0.1,0.225,0.1c0.115,0,0.226-0.06,0.306-0.14l0.045,0.19
		C33.762,77.02,33.537,77.16,33.267,77.16z"/>
	<path fill="#FFFFFF" d="M34.727,77.16c-0.351,0-0.581-0.195-0.581-0.531c0-0.491,0.561-0.701,1.166-0.75v-0.611
		c-0.05-0.1-0.215-0.18-0.395-0.18c-0.035,0-0.07,0.005-0.085,0.01l-0.105,0.606h-0.165c-0.28,0-0.396-0.08-0.396-0.265
		c0-0.301,0.45-0.606,1.031-0.606c0.465,0,0.771,0.24,0.771,0.706c0,0.075-0.035,1.136-0.035,1.247c0.04,0.025,0.09,0.04,0.155,0.04
		c0.06,0,0.115-0.02,0.16-0.065l0.025,0.18c-0.065,0.125-0.225,0.221-0.385,0.221c-0.22,0-0.396-0.075-0.545-0.275
		C35.107,77.105,34.917,77.16,34.727,77.16z M35.312,76.059l-0.23,0.065c-0.23,0.06-0.306,0.165-0.306,0.365
		c0,0.21,0.09,0.305,0.301,0.305c0.075,0,0.18-0.02,0.235-0.045V76.059z"/>
	<path fill="#FFFFFF" d="M40.464,77.11c-0.01-0.035-0.015-0.1-0.015-0.14c0-0.045,0.005-0.1,0.015-0.14h0.37v-2.037l0.04-0.475
		l-1.071,2.843h-0.38l-0.846-2.368l-0.13-0.475l-0.05,2.372l0.105,0.14h0.265c0.01,0.035,0.015,0.1,0.015,0.14
		s-0.005,0.105-0.015,0.14h-1.086c-0.01-0.035-0.015-0.1-0.015-0.14c0-0.045,0.005-0.1,0.015-0.14h0.22l0.105-0.14l0.085-2.487h-0.4
		c-0.01-0.04-0.015-0.1-0.015-0.14s0.005-0.105,0.015-0.14h1.296l0.636,1.757l0.175,0.61l0.185-0.61l0.65-1.757h1.241
		c0.01,0.035,0.015,0.1,0.015,0.14s-0.005,0.105-0.015,0.14h-0.35v2.627h0.35c0.01,0.035,0.015,0.1,0.015,0.14
		s-0.005,0.105-0.015,0.14H40.464z"/>
	<path fill="#FFFFFF" d="M42.827,77.16c-0.35,0-0.581-0.195-0.581-0.531c0-0.491,0.561-0.701,1.166-0.75v-0.611
		c-0.05-0.1-0.215-0.18-0.396-0.18c-0.035,0-0.07,0.005-0.085,0.01l-0.105,0.606h-0.165c-0.28,0-0.396-0.08-0.396-0.265
		c0-0.301,0.451-0.606,1.031-0.606c0.466,0,0.771,0.24,0.771,0.706c0,0.075-0.035,1.136-0.035,1.247
		c0.04,0.025,0.09,0.04,0.155,0.04c0.06,0,0.115-0.02,0.16-0.065l0.025,0.18c-0.065,0.125-0.225,0.221-0.385,0.221
		c-0.22,0-0.396-0.075-0.545-0.275C43.207,77.105,43.017,77.16,42.827,77.16z M43.412,76.059l-0.23,0.065
		c-0.23,0.06-0.305,0.165-0.305,0.365c0,0.21,0.09,0.305,0.3,0.305c0.075,0,0.181-0.02,0.235-0.045V76.059z"/>
	<path fill="#FFFFFF" d="M44.481,77.11c-0.01-0.035-0.015-0.08-0.015-0.135c0-0.055,0.005-0.095,0.015-0.135h0.29v-1.412
		l-0.28-0.315v-0.085l0.781-0.195h0.08l0.065,0.526c0.266-0.421,0.436-0.526,0.646-0.526c0.235,0,0.36,0.15,0.36,0.326
		c0,0.16-0.075,0.295-0.21,0.405l-0.085,0.07l-0.396-0.235c-0.055,0-0.135,0.02-0.295,0.13v1.312h0.315
		c0.01,0.04,0.015,0.085,0.015,0.135c0,0.055-0.005,0.1-0.015,0.135H44.481z"/>
	<path fill="#FFFFFF" d="M46.566,77.11c-0.01-0.035-0.015-0.08-0.015-0.135c0-0.055,0.005-0.095,0.015-0.135h0.29v-1.412
		l-0.28-0.315v-0.085l0.856-0.195h0.09v2.007h0.286c0.01,0.04,0.015,0.08,0.015,0.135c0,0.055-0.005,0.1-0.015,0.135H46.566z
		 M46.781,74.117c0-0.221,0.115-0.386,0.38-0.386c0.25,0,0.371,0.175,0.371,0.386c-0.005,0.215-0.12,0.38-0.375,0.38
		C46.896,74.497,46.781,74.322,46.781,74.117z"/>
	<path fill="#FFFFFF" d="M48.627,77.16c-0.351,0-0.581-0.195-0.581-0.531c0-0.491,0.561-0.701,1.166-0.75v-0.611
		c-0.05-0.1-0.215-0.18-0.395-0.18c-0.035,0-0.07,0.005-0.085,0.01l-0.105,0.606h-0.165c-0.28,0-0.396-0.08-0.396-0.265
		c0-0.301,0.45-0.606,1.031-0.606c0.465,0,0.771,0.24,0.771,0.706c0,0.075-0.035,1.136-0.035,1.247c0.04,0.025,0.09,0.04,0.155,0.04
		c0.06,0,0.115-0.02,0.16-0.065l0.025,0.18c-0.065,0.125-0.225,0.221-0.385,0.221c-0.22,0-0.396-0.075-0.545-0.275
		C49.007,77.105,48.817,77.16,48.627,77.16z M49.212,76.059l-0.23,0.065c-0.23,0.06-0.306,0.165-0.306,0.365
		c0,0.21,0.09,0.305,0.301,0.305c0.075,0,0.18-0.02,0.235-0.045V76.059z"/>
</g>
</svg>
