<?xml version="1.0" encoding="utf-8"?>
<!-- Generator: Adobe Illustrator 16.2.1, SVG Export Plug-In . SVG Version: 6.00 Build 0)  -->
<!DOCTYPE svg PUBLIC "-//W3C//DTD SVG 1.1//EN" "http://www.w3.org/Graphics/SVG/1.1/DTD/svg11.dtd">
<svg version="1.1" id="_x31_0_1_" xmlns="http://www.w3.org/2000/svg" xmlns:xlink="http://www.w3.org/1999/xlink" x="0px" y="0px"
	 width="100px" height="154px" viewBox="0 0 100 154" enable-background="new 0 0 100 154" xml:space="preserve">
<rect y="28" fill="#E84C88" width="100" height="126"/>
<g>
	<path fill="#FFFFFF" d="M14.692,102.821c-1.534,0-2.384-0.874-2.384-2.408v-2.667h1.369v2.384c0,0.991,0.377,1.345,0.944,1.345
		c0.638,0,0.992-0.425,0.992-1.982c0-2.125-0.26-3.447-1.086-5.288c-0.212-0.449-0.637-1.346-0.897-1.865
		c-0.968-1.912-1.417-3.257-1.417-5.358c0-2.125,0.921-3.281,2.502-3.281c1.7,0,2.313,1.274,2.337,3.139
		c0,0.118,0.023,2.125,0.023,2.125h-1.44v-2.077c0-1.109-0.189-1.747-0.944-1.747c-0.708,0-0.944,0.542-0.944,1.982
		c0,1.511,0.401,2.904,1.204,4.415c0.283,0.543,0.614,1.18,0.897,1.771c0.921,1.912,1.298,3.635,1.298,5.925
		C17.147,101.877,16.25,102.821,14.692,102.821z"/>
	<path fill="#FFFFFF" d="M19.058,102.68h-1.44l1.959-18.884h1.959l1.534,18.884h-1.463c0,0-0.26-4.083-0.283-4.603
		c0,0-1.889,0-1.912,0C19.412,98.596,19.058,102.68,19.058,102.68z M20.592,89.154c0-0.472-0.118-3.612-0.118-3.612
		s-0.142,3.116-0.166,3.588c-0.047,0.661-0.755,7.53-0.755,7.53h1.676C21.229,96.66,20.592,89.626,20.592,89.154z"/>
	<path fill="#FFFFFF" d="M25.878,102.821c-1.534,0-2.384-0.874-2.384-2.408v-2.667h1.369v2.384c0,0.991,0.377,1.345,0.944,1.345
		c0.638,0,0.992-0.425,0.992-1.982c0-2.125-0.26-3.447-1.086-5.288c-0.212-0.449-0.637-1.346-0.897-1.865
		c-0.968-1.912-1.417-3.257-1.417-5.358c0-2.125,0.921-3.281,2.502-3.281c1.7,0,2.313,1.274,2.337,3.139
		c0,0.118,0.023,2.125,0.023,2.125h-1.44v-2.077c0-1.109-0.189-1.747-0.944-1.747c-0.708,0-0.944,0.542-0.944,1.982
		c0,1.511,0.401,2.904,1.204,4.415c0.283,0.543,0.614,1.18,0.897,1.771c0.921,1.912,1.298,3.635,1.298,5.925
		C28.333,101.877,27.436,102.821,25.878,102.821z"/>
	<path fill="#FFFFFF" d="M31.376,102.821c-1.534,0-2.384-0.874-2.384-2.408v-2.667h1.369v2.384c0,0.991,0.377,1.345,0.944,1.345
		c0.638,0,0.992-0.425,0.992-1.982c0-2.125-0.26-3.447-1.086-5.288c-0.212-0.449-0.637-1.346-0.897-1.865
		c-0.968-1.912-1.417-3.257-1.417-5.358c0-2.125,0.921-3.281,2.502-3.281c1.7,0,2.313,1.274,2.337,3.139
		c0,0.118,0.023,2.125,0.023,2.125h-1.44v-2.077c0-1.109-0.189-1.747-0.944-1.747c-0.708,0-0.944,0.542-0.944,1.982
		c0,1.511,0.401,2.904,1.204,4.415c0.283,0.543,0.614,1.18,0.897,1.771c0.921,1.912,1.298,3.635,1.298,5.925
		C33.832,101.877,32.935,102.821,31.376,102.821z"/>
	<path fill="#FFFFFF" d="M39.212,85.259v7.176h2.573v1.416h-2.573v8.829h-1.464V83.795h4.226v1.463H39.212z"/>
	<path fill="#FFFFFF" d="M47.802,86.864c0,0.85,0.023,4.438,0.023,6.302c0,2.078,0,5.288-0.023,6.515
		c-0.071,2.078-0.826,3.14-2.549,3.14s-2.455-0.991-2.502-3.092c-0.024-0.52-0.024-4.509-0.024-6.539c0-1.747,0-5.618,0.024-6.255
		c0.047-2.172,0.779-3.234,2.502-3.234C46.905,83.701,47.731,84.669,47.802,86.864z M46.268,99.965
		c0.047-0.826,0.047-5.311,0.047-6.751c0-1.274,0-5.712-0.023-6.468c-0.023-1.086-0.26-1.558-1.015-1.558
		c-0.85,0-1.015,0.614-1.015,1.582c0,0.779-0.024,5.146-0.024,6.515c0,1.44,0,5.878,0.024,6.68c0.023,0.803,0.236,1.393,1.039,1.393
		C46.008,101.358,46.221,100.72,46.268,99.965z"/>
	<path fill="#FFFFFF" d="M53.466,92.104c-0.165,0.472-0.519,1.086-0.826,1.204l1.534,9.371H52.64l-1.345-8.923l-0.732,0.023v8.899
		h-1.417V83.795h2.243c1.298,0,1.912,0.708,2.195,1.959c0.118,0.542,0.189,1.652,0.189,3.139
		C53.773,90.452,53.678,91.42,53.466,92.104z M52.144,86.439c-0.047-0.708-0.354-1.228-0.874-1.228h-0.685c0,0,0,6.704,0,7.176
		c0.024,0,0.543,0,0.755-0.047c0.401-0.047,0.567-0.354,0.661-0.661c0.165-0.449,0.236-1.818,0.236-2.549
		C52.238,88.163,52.167,86.675,52.144,86.439z"/>
	<path fill="#FFFFFF" d="M19.579,123.68h-1.747c0,0-1.18-12.605-1.204-15.084c-0.024,2.479-1.204,15.084-1.204,15.084h-1.723
		l-1.582-18.884h1.463c0,0,1.039,13.502,1.039,15.863c0-2.36,1.275-15.863,1.275-15.863h1.463c0,0,1.275,13.526,1.275,15.863
		c0-2.337,1.109-15.863,1.109-15.863h1.44L19.579,123.68z"/>
	<path fill="#FFFFFF" d="M22.078,123.68v-18.884h4.226v1.417h-2.762v7.223h2.431v1.416h-2.431v7.412h2.785v1.417H22.078z"/>
	<path fill="#FFFFFF" d="M30.103,123.68h-2.88v-18.884h2.715c1.015,0,1.841,0.449,2.03,1.463c0.095,0.52,0.142,2.219,0.142,3.14
		c0,0.968-0.047,2.691-0.118,3.187c-0.118,0.874-0.378,1.346-0.992,1.511c0.614,0.118,0.944,0.543,1.062,1.298
		c0.118,0.685,0.142,2.172,0.142,3.116c0,1.133,0.047,2.88-0.142,3.588C31.779,123.16,31.354,123.68,30.103,123.68z M30.575,107.297
		c0-0.637-0.377-1.085-0.92-1.085h-0.992v7.271h1.298c0.26,0,0.59-0.236,0.614-0.874c0.023-0.378,0.023-1.771,0.023-2.904
		C30.599,108.714,30.575,107.723,30.575,107.297z M30.669,118.321c0-0.755-0.023-2.148-0.047-2.62
		c-0.024-0.637-0.307-0.874-0.637-0.874h-1.322v7.459h1.298c0.401,0,0.661-0.236,0.685-0.874
		C30.669,120.918,30.669,119.029,30.669,118.321z"/>
	<path fill="#FFFFFF" d="M38.811,123.68h-2.455v-18.884h2.172c1.44,0,2.195,0.708,2.455,1.888c0.165,0.85,0.212,3.14,0.212,7.129
		c0,2.172,0,7.058-0.212,8.002S40.322,123.68,38.811,123.68z M39.731,113.789c0-0.685-0.023-5.358-0.023-6.043
		c0-0.991-0.496-1.511-1.109-1.511H37.82v16.099h1.039c0.425,0,0.826-0.283,0.85-1.062S39.731,114.474,39.731,113.789z"/>
	<path fill="#FFFFFF" d="M42.445,123.68v-18.884h4.226v1.417h-2.762v7.223h2.431v1.416h-2.431v7.412h2.785v1.417H42.445z"/>
	<path fill="#FFFFFF" d="M49.525,123.821c-1.534,0-2.384-0.874-2.384-2.408v-2.667h1.369v2.384c0,0.991,0.377,1.345,0.944,1.345
		c0.638,0,0.992-0.425,0.992-1.982c0-2.125-0.26-3.447-1.086-5.288c-0.212-0.449-0.637-1.346-0.897-1.865
		c-0.968-1.912-1.417-3.257-1.417-5.358c0-2.125,0.921-3.281,2.502-3.281c1.7,0,2.313,1.274,2.337,3.139
		c0,0.118,0.023,2.125,0.023,2.125h-1.44v-2.077c0-1.109-0.189-1.747-0.944-1.747c-0.708,0-0.944,0.542-0.944,1.982
		c0,1.511,0.401,2.904,1.204,4.415c0.283,0.543,0.614,1.18,0.897,1.771c0.921,1.912,1.298,3.635,1.298,5.925
		C51.98,122.877,51.083,123.821,49.525,123.821z"/>
	<path fill="#FFFFFF" d="M53.088,123.68v-18.884h1.487v18.884H53.088z"/>
	<path fill="#FFFFFF" d="M59.744,123.68l-0.071-0.661c-0.236,0.52-0.874,0.779-1.463,0.779c-1.298,0-2.148-0.732-2.219-2.455
		c-0.023-0.52-0.071-5.358-0.071-7.105c0-1.747-0.023-5.264,0.047-6.774c0.047-1.582,0.803-2.786,2.384-2.786
		c1.676,0,2.219,1.228,2.29,2.361c0.023,0.897,0,3.635,0,3.635h-1.44c0,0,0-1.865,0-3.187c0-0.968-0.307-1.274-0.85-1.274
		c-0.52,0-0.897,0.377-0.897,1.393c0,1.133-0.024,5.406-0.024,6.657c0,0.944,0.024,5.925,0.024,6.728c0,0.92,0.283,1.393,0.92,1.393
		c0.59,0,0.92-0.425,0.92-1.298c0-0.59,0-5.996,0-5.996h-1.227v-1.417h2.644c0,0,0,4.58,0,5.783c0,2.148,0.023,4.226,0.023,4.226
		H59.744z"/>
	<path fill="#FFFFFF" d="M65.148,123.68l-1.841-12.251v12.251h-1.322v-18.884h1.582l1.889,13.361v-13.361H66.8v18.884H65.148z"/>
	<path fill="#FFFFFF" d="M68.31,123.68v-18.884h4.226v1.417h-2.762v7.223h2.431v1.416h-2.431v7.412h2.785v1.417H68.31z"/>
	<path fill="#FFFFFF" d="M77.774,113.104c-0.165,0.472-0.519,1.086-0.826,1.204l1.534,9.371h-1.534l-1.345-8.923l-0.732,0.023v8.899
		h-1.417v-18.884h2.243c1.298,0,1.912,0.708,2.195,1.959c0.118,0.542,0.189,1.652,0.189,3.139
		C78.082,111.452,77.987,112.42,77.774,113.104z M76.453,107.439c-0.047-0.708-0.354-1.228-0.874-1.228h-0.685c0,0,0,6.704,0,7.176
		c0.024,0,0.543,0,0.755-0.047c0.401-0.047,0.567-0.354,0.661-0.661c0.165-0.449,0.236-1.818,0.236-2.549
		C76.547,109.163,76.476,107.675,76.453,107.439z"/>
	<path fill="#FFFFFF" d="M81.384,123.821c-1.534,0-2.384-0.874-2.384-2.408v-2.667h1.369v2.384c0,0.991,0.377,1.345,0.944,1.345
		c0.638,0,0.992-0.425,0.992-1.982c0-2.125-0.26-3.447-1.086-5.288c-0.212-0.449-0.637-1.346-0.897-1.865
		c-0.968-1.912-1.417-3.257-1.417-5.358c0-2.125,0.921-3.281,2.502-3.281c1.7,0,2.313,1.274,2.337,3.139
		c0,0.118,0.023,2.125,0.023,2.125h-1.44v-2.077c0-1.109-0.189-1.747-0.944-1.747c-0.708,0-0.944,0.542-0.944,1.982
		c0,1.511,0.401,2.904,1.204,4.415c0.283,0.543,0.614,1.18,0.897,1.771c0.921,1.912,1.298,3.635,1.298,5.925
		C83.839,122.877,82.942,123.821,81.384,123.821z"/>
</g>
<rect fill="#FFFFFF" width="100" height="28"/>
<path fill="#231F20" d="M81,38c5.523,0,10-4.478,10-10s-4.477-10-10-10c-5.522,0-10,4.478-10,10S75.478,38,81,38"/>
<g>
	<g>
		<path fill="#ECE6D4" d="M17,17.624c0,1.38-1.12,2.499-2.5,2.499c-1.38,0-2.5-1.119-2.5-2.499c0-1.381,1.119-2.5,2.5-2.5
			C15.88,15.124,17,16.243,17,17.624"/>
		<g>
			<path fill="#8E7F33" d="M13.369,18.736c-0.19-0.154-0.373-0.245-0.639-0.169c0.044,0.139,0.116,0.256,0.273,0.36
				c0.298,0.2,0.691,0.242,0.691,0.242S13.648,18.963,13.369,18.736"/>
			<path fill="#8E7F33" d="M15.196,17.349c-0.536,0.164-0.784,0.478-1.036,0.851c0.189,0.044,0.924,0.06,1.227-0.027
				c0.723-0.208,1.182-0.925,1.182-0.925S15.832,17.153,15.196,17.349"/>
			<path fill="#8E7F33" d="M14.287,18.361c-0.415-0.101-0.639,0.043-0.896,0.23c0.193,0.112,0.544,0.27,0.778,0.325
				c0.492,0.117,1.09-0.066,1.09-0.066S14.779,18.479,14.287,18.361"/>
			<path fill="#8E7F33" d="M15.696,16.341c-0.17,0.569-0.616,0.785-0.987,0.98c0.008-0.308,0.017-0.841,0.113-1.161
				c0.203-0.675,0.856-1.283,0.856-1.283S15.899,15.665,15.696,16.341"/>
			<path fill="#8E7F33" d="M14.435,17.36c-0.067,0.378-0.323,0.554-0.495,0.709c-0.021-0.197-0.011-0.58,0.027-0.792
				c0.08-0.448,0.428-0.886,0.428-0.886S14.515,16.912,14.435,17.36"/>
			<path fill="#8E7F33" d="M13.734,17.98c-0.053,0.28-0.219,0.361-0.391,0.466c-0.013-0.148-0.007-0.406,0.023-0.563
				c0.063-0.333,0.322-0.647,0.322-0.647S13.798,17.648,13.734,17.98"/>
		</g>
	</g>
	<g>
		<path fill="#241F21" d="M20.241,16.899l-0.099-0.345l-0.109,0.345l-0.332,0.785h0.862L20.241,16.899z M20.645,18.954
			c-0.009-0.032-0.013-0.067-0.013-0.104c0-0.036,0.004-0.068,0.013-0.104h0.363l-0.35-0.839h-1.053l-0.281,0.676l0.068,0.163h0.25
			c0.009,0.032,0.014,0.068,0.014,0.104c0,0.037-0.004,0.072-0.014,0.104h-0.875c-0.009-0.032-0.014-0.067-0.014-0.104
			c0-0.042,0.004-0.068,0.014-0.104h0.2l1.18-2.727h0.19l1.148,2.727h0.232c0.009,0.032,0.014,0.068,0.014,0.104
			c0,0.037-0.005,0.072-0.014,0.104H20.645z"/>
		<path fill="#241F21" d="M24.912,18.75c0.399,0,0.608-0.196,0.608-0.567c0-0.377-0.218-0.599-0.685-0.599h-0.322v1.144
			C24.58,18.736,24.821,18.75,24.912,18.75 M25.075,17.379c0.159-0.072,0.295-0.291,0.295-0.576c0-0.354-0.186-0.531-0.549-0.531
			h-0.308v1.107H25.075z M23.691,18.954c-0.009-0.032-0.014-0.067-0.014-0.104c0-0.036,0.005-0.068,0.014-0.104h0.372v-2.473h-0.372
			c-0.009-0.036-0.014-0.068-0.014-0.104c0-0.037,0.005-0.073,0.014-0.104h1.193c0.641,0,0.967,0.254,0.967,0.721
			c0,0.304-0.213,0.545-0.485,0.631l-0.191,0.045l0.191,0.019c0.408,0.068,0.64,0.331,0.64,0.689c0,0.535-0.458,0.785-1.125,0.785
			H23.691z"/>
		<path fill="#241F21" d="M29.055,17.479c0-0.786-0.417-1.234-0.984-1.234c-0.577,0-1.008,0.44-1.008,1.293
			c0,0.786,0.417,1.234,0.984,1.234C28.624,18.772,29.055,18.333,29.055,17.479 M26.555,17.538c0-0.903,0.734-1.52,1.516-1.52
			c0.803,0,1.493,0.558,1.493,1.461c0,0.903-0.735,1.521-1.516,1.521C27.245,19,26.555,18.442,26.555,17.538"/>
		<path fill="#241F21" d="M32.446,17.479c0-0.786-0.417-1.234-0.985-1.234c-0.576,0-1.008,0.44-1.008,1.293
			c0,0.786,0.418,1.234,0.985,1.234C32.015,18.772,32.446,18.333,32.446,17.479 M29.945,17.538c0-0.903,0.735-1.52,1.516-1.52
			c0.803,0,1.493,0.558,1.493,1.461c0,0.903-0.735,1.521-1.516,1.521C30.636,19,29.945,18.442,29.945,17.538"/>
		<path fill="#241F21" d="M35.496,18.936v-0.063l-1.089-1.257l-0.163-0.046v1.158h0.336c0.009,0.032,0.013,0.068,0.013,0.104
			s-0.004,0.072-0.013,0.104h-1.157c-0.009-0.032-0.014-0.067-0.014-0.104s0.004-0.068,0.014-0.104h0.372v-2.473h-0.372
			c-0.009-0.037-0.014-0.068-0.014-0.105c0-0.036,0.004-0.072,0.014-0.104h1.157c0.009,0.031,0.013,0.067,0.013,0.104
			c0,0.037-0.004,0.068-0.013,0.105h-0.336v1.13h0.163l0.994-0.98l-0.032-0.149h-0.24c-0.009-0.037-0.014-0.068-0.014-0.105
			c0-0.036,0.005-0.067,0.014-0.104H36.1c0.009,0.036,0.014,0.067,0.014,0.104c0,0.037-0.005,0.068-0.014,0.105h-0.223l-1.139,1.08
			l1.212,1.393h0.254c0.009,0.036,0.013,0.068,0.013,0.104s-0.004,0.072-0.013,0.104H35.496z"/>
		<path fill="#241F21" d="M39.5,16.881l-0.101-0.345l-0.109,0.345l-0.331,0.785h0.862L39.5,16.881z M39.903,18.936
			c-0.009-0.032-0.013-0.067-0.013-0.104s0.004-0.068,0.013-0.104h0.363l-0.349-0.84h-1.053l-0.282,0.676l0.068,0.164h0.25
			c0.009,0.032,0.014,0.068,0.014,0.104s-0.005,0.072-0.014,0.104h-0.876c-0.009-0.032-0.014-0.067-0.014-0.104
			c0-0.042,0.004-0.068,0.014-0.104h0.2L39.404,16h0.19l1.149,2.728h0.231c0.009,0.032,0.013,0.068,0.013,0.104
			s-0.004,0.072-0.013,0.104H39.903z"/>
		<path fill="#241F21" d="M42.191,17.534h0.335c0.373,0,0.594-0.227,0.594-0.662c0-0.426-0.204-0.617-0.594-0.617h-0.335V17.534z
			 M41.369,18.936c-0.009-0.032-0.013-0.067-0.013-0.104c0-0.042,0.004-0.068,0.013-0.104h0.373v-2.473h-0.373
			c-0.009-0.037-0.013-0.068-0.013-0.105c0-0.036,0.004-0.072,0.013-0.104h1.221c0.657,0,1.017,0.317,1.017,0.826
			c0,0.513-0.396,0.871-1.081,0.871h-0.335v0.985h0.413c0.009,0.032,0.014,0.068,0.014,0.104s-0.005,0.072-0.014,0.104H41.369z"/>
		<path fill="#241F21" d="M45.159,16.881l-0.1-0.345l-0.109,0.345l-0.332,0.785h0.862L45.159,16.881z M45.563,18.936
			c-0.009-0.032-0.014-0.067-0.014-0.104s0.005-0.068,0.014-0.104h0.363l-0.35-0.84h-1.053l-0.281,0.676l0.068,0.164h0.25
			c0.008,0.032,0.014,0.068,0.014,0.104s-0.005,0.072-0.014,0.104h-0.876c-0.009-0.032-0.014-0.067-0.014-0.104
			c0-0.042,0.004-0.068,0.014-0.104h0.2L45.064,16h0.19l1.148,2.728h0.231c0.009,0.032,0.014,0.068,0.014,0.104
			s-0.005,0.072-0.014,0.104H45.563z"/>
		<path fill="#241F21" d="M48.323,17.488c0.246-0.091,0.445-0.272,0.445-0.644c0-0.423-0.186-0.59-0.577-0.59h-0.34v1.234H48.323z
			 M49.049,18.936v-0.063l-0.858-1.152l-0.34-0.05v1.058H48.2c0.009,0.032,0.013,0.068,0.013,0.104s-0.004,0.072-0.013,0.104h-1.17
			c-0.009-0.032-0.014-0.067-0.014-0.104c0-0.042,0.004-0.068,0.014-0.104h0.372v-2.473H47.03c-0.009-0.037-0.014-0.068-0.014-0.105
			c0-0.036,0.004-0.072,0.014-0.104h1.225c0.64,0,0.989,0.281,0.989,0.789c0,0.359-0.28,0.695-0.744,0.776
			c0.145,0.1,0.286,0.231,0.399,0.396l0.581,0.721h0.205c0.009,0.032,0.013,0.068,0.013,0.104s-0.004,0.072-0.013,0.104H49.049z"/>
		<path fill="#241F21" d="M52.394,16.046h-2.482l-0.068,0.558h0.245l0.118-0.227c0.041-0.082,0.059-0.113,0.1-0.122h0.621v2.473
			h-0.372c-0.009,0.036-0.014,0.063-0.014,0.104c0,0.037,0.005,0.073,0.014,0.104h1.193c0.009-0.032,0.014-0.068,0.014-0.104
			c0-0.036-0.005-0.072-0.014-0.104h-0.373v-2.473h0.622c0.041,0.009,0.059,0.041,0.1,0.122l0.118,0.227h0.245L52.394,16.046z"/>
	</g>
</g>
<rect x="12" y="80.5" width="72" height="0.5"/>
<rect x="12" y="127" width="72" height="0.5"/>
<g>
	<path fill="#FFFFFF" d="M76.177,32.186c-0.026-0.091-0.039-0.195-0.039-0.299c0-0.117,0.013-0.195,0.039-0.299h1.404v-7.033h-1.378
		c-0.026-0.104-0.039-0.195-0.039-0.299s0.013-0.208,0.039-0.299h0.78l1.729-0.182l0.091,0.117l-0.078,0.923v6.773h1.105
		c0.026,0.091,0.039,0.195,0.039,0.299s-0.013,0.208-0.039,0.299H76.177z"/>
	<path fill="#FFFFFF" d="M80.896,28.051c0-2.717,0.988-4.277,2.626-4.277c1.638,0,2.613,1.495,2.613,4.264
		c0,2.717-0.988,4.277-2.626,4.277S80.896,30.82,80.896,28.051z M84.914,28.039c0-2.86-0.26-3.667-1.391-3.667
		c-1.131,0-1.404,0.806-1.404,3.679c0,2.86,0.26,3.667,1.391,3.667S84.914,30.912,84.914,28.039z"/>
</g>
<g>
	<path fill="#FFFFFF" d="M11.965,77.11c-0.01-0.035-0.015-0.095-0.015-0.135c0-0.045,0.005-0.105,0.015-0.145h0.35v-2.627h-0.35
		c-0.01-0.04-0.015-0.1-0.015-0.14s0.005-0.105,0.015-0.14c0.4,0,1.061-0.02,1.457-0.02c1.101,0,1.882,0.47,1.882,1.562
		c0,1.021-0.821,1.646-1.842,1.646H11.965z M13.031,76.779c0.115,0.01,0.271,0.015,0.431,0.015c0.63,0,1.051-0.42,1.051-1.331
		c0-0.891-0.416-1.236-1.091-1.236h-0.391V76.779z"/>
	<path fill="#FFFFFF" d="M16.241,77.16c-0.35,0-0.581-0.195-0.581-0.531c0-0.491,0.561-0.701,1.166-0.75v-0.611
		c-0.05-0.1-0.215-0.18-0.396-0.18c-0.035,0-0.07,0.005-0.085,0.01l-0.105,0.606h-0.165c-0.28,0-0.396-0.08-0.396-0.265
		c0-0.301,0.451-0.606,1.031-0.606c0.466,0,0.771,0.24,0.771,0.706c0,0.075-0.035,1.136-0.035,1.247
		c0.04,0.025,0.09,0.04,0.155,0.04c0.06,0,0.115-0.02,0.16-0.065l0.025,0.18c-0.065,0.125-0.225,0.221-0.385,0.221
		c-0.22,0-0.396-0.075-0.545-0.275C16.621,77.105,16.431,77.16,16.241,77.16z M16.826,76.059l-0.23,0.065
		c-0.23,0.06-0.305,0.165-0.305,0.365c0,0.21,0.09,0.305,0.3,0.305c0.075,0,0.181-0.02,0.235-0.045V76.059z"/>
	<path fill="#FFFFFF" d="M19.417,77.11c-0.01-0.035-0.015-0.085-0.015-0.14s0.005-0.09,0.015-0.13h0.24v-1.422
		c-0.075-0.095-0.206-0.13-0.331-0.13c-0.145,0-0.325,0.05-0.476,0.14v1.412h0.24c0.01,0.04,0.015,0.08,0.015,0.13
		c0,0.055-0.005,0.105-0.015,0.14h-1.196c-0.01-0.035-0.015-0.085-0.015-0.14s0.005-0.09,0.015-0.13h0.29v-1.412l-0.28-0.315v-0.085
		l0.781-0.195h0.08l0.065,0.446c0.291-0.341,0.546-0.446,0.831-0.446c0.355,0,0.661,0.18,0.661,0.676v1.332h0.285
		c0.01,0.04,0.015,0.075,0.015,0.13s-0.005,0.105-0.015,0.14H19.417z"/>
	<path fill="#FFFFFF" d="M24.683,76.264h0.335l-0.045,0.65c-0.24,0.15-0.656,0.246-1.031,0.246c-1.101,0-1.897-0.591-1.897-1.602
		c0-1.056,0.746-1.687,1.747-1.687c0.25,0,0.565,0.06,0.741,0.175l0.05-0.175h0.37v0.771l-0.335,0.055l-0.16-0.355
		c-0.105-0.08-0.346-0.135-0.586-0.135c-0.621,0-1.036,0.416-1.036,1.352c0,0.826,0.426,1.266,1.146,1.266
		c0.18,0,0.4-0.035,0.521-0.08L24.683,76.264z"/>
	<path fill="#FFFFFF" d="M27.438,76.6c-0.166,0.335-0.476,0.561-0.876,0.561c-0.666,0-1.141-0.431-1.141-1.106
		c0-0.735,0.53-1.221,1.146-1.221c0.576,0,0.911,0.32,0.911,0.771c0,0.095-0.01,0.17-0.025,0.24h-1.351
		c-0.005,0.04-0.005,0.065-0.005,0.09c0,0.431,0.261,0.731,0.721,0.731c0.246,0,0.436-0.09,0.581-0.225L27.438,76.6z M26.837,75.599
		c0.005-0.05,0.005-0.095,0.005-0.13c0-0.095-0.015-0.215-0.03-0.265c-0.015-0.05-0.045-0.075-0.095-0.09
		c-0.05-0.015-0.12-0.025-0.175-0.025c-0.05,0-0.13,0.01-0.17,0.02c-0.035,0.01-0.06,0.02-0.085,0.045
		c-0.065,0.065-0.15,0.28-0.17,0.446H26.837z"/>
	<path fill="#FFFFFF" d="M29.442,77.16h-0.06l-0.05-0.381c-0.226,0.28-0.451,0.381-0.686,0.381c-0.521,0-0.931-0.4-0.931-1.106
		c0-0.761,0.47-1.221,1.096-1.221c0.195,0,0.38,0.055,0.49,0.155v-0.906l-0.28-0.291v-0.085l0.876-0.21h0.07v3.088l0.28,0.305v0.085
		L29.442,77.16z M29.302,75.273c-0.075-0.055-0.19-0.085-0.325-0.085c-0.311,0-0.546,0.19-0.546,0.826
		c0,0.531,0.24,0.716,0.506,0.716c0.155,0,0.265-0.025,0.365-0.085V75.273z"/>
	<path fill="#FFFFFF" d="M32.422,76.6c-0.165,0.335-0.475,0.561-0.875,0.561c-0.666,0-1.141-0.431-1.141-1.106
		c0-0.735,0.53-1.221,1.146-1.221c0.576,0,0.911,0.32,0.911,0.771c0,0.095-0.01,0.17-0.025,0.24h-1.351
		c-0.005,0.04-0.005,0.065-0.005,0.09c0,0.431,0.26,0.731,0.721,0.731c0.245,0,0.435-0.09,0.58-0.225L32.422,76.6z M31.821,75.599
		c0.005-0.05,0.005-0.095,0.005-0.13c0-0.095-0.015-0.215-0.03-0.265c-0.015-0.05-0.045-0.075-0.095-0.09
		c-0.05-0.015-0.12-0.025-0.175-0.025c-0.05,0-0.13,0.01-0.17,0.02c-0.035,0.01-0.06,0.02-0.085,0.045
		c-0.065,0.065-0.15,0.28-0.17,0.446H31.821z"/>
	<path fill="#FFFFFF" d="M32.695,77.11c-0.01-0.035-0.015-0.08-0.015-0.135c0-0.055,0.005-0.095,0.015-0.135h0.29v-1.412
		l-0.28-0.315v-0.085l0.781-0.195h0.08l0.065,0.526c0.266-0.421,0.436-0.526,0.646-0.526c0.235,0,0.36,0.15,0.36,0.326
		c0,0.16-0.075,0.295-0.21,0.405l-0.085,0.07l-0.396-0.235c-0.055,0-0.135,0.02-0.295,0.13v1.312h0.315
		c0.01,0.04,0.015,0.085,0.015,0.135c0,0.055-0.005,0.1-0.015,0.135H32.695z"/>
	<path fill="#FFFFFF" d="M36.287,77.11c-0.01-0.035-0.015-0.08-0.015-0.135c0-0.055,0.005-0.095,0.015-0.135h0.255v-1.422
		c-0.08-0.095-0.21-0.13-0.346-0.13c-0.165,0-0.345,0.05-0.495,0.14v1.412h0.255c0.01,0.04,0.015,0.085,0.015,0.135
		c0,0.055-0.005,0.1-0.015,0.135h-1.211c-0.01-0.035-0.015-0.08-0.015-0.135c0-0.055,0.005-0.095,0.015-0.135h0.29v-2.758
		l-0.28-0.291v-0.085l0.866-0.21h0.08v1.757c0.27-0.315,0.55-0.42,0.841-0.42c0.36,0,0.666,0.18,0.666,0.676v1.332h0.285
		c0.01,0.04,0.015,0.08,0.015,0.135c0,0.055-0.005,0.1-0.015,0.135H36.287z"/>
	<path fill="#FFFFFF" d="M37.635,75.994c0-0.69,0.561-1.161,1.226-1.161c0.711,0,1.216,0.456,1.216,1.167
		c0,0.69-0.561,1.161-1.231,1.161C38.141,77.16,37.635,76.705,37.635,75.994z M38.861,75.143c-0.305,0-0.49,0.27-0.49,0.851
		c0,0.536,0.155,0.856,0.475,0.856c0.305,0,0.496-0.271,0.496-0.851C39.342,75.463,39.182,75.143,38.861,75.143z"/>
	<path fill="#FFFFFF" d="M40.265,77.11c-0.01-0.035-0.015-0.08-0.015-0.135c0-0.055,0.005-0.095,0.015-0.135h0.29v-2.758
		l-0.28-0.291v-0.085l0.866-0.21h0.08v3.344h0.286c0.01,0.04,0.015,0.08,0.015,0.135c0,0.055-0.005,0.1-0.015,0.135H40.265z"/>
	<path fill="#FFFFFF" d="M44.573,77.11c-0.01-0.035-0.015-0.08-0.015-0.135c0-0.055,0.005-0.095,0.015-0.135h0.225v-1.422
		c-0.075-0.095-0.19-0.13-0.315-0.13c-0.145,0-0.295,0.05-0.446,0.14v1.412h0.226c0.01,0.04,0.015,0.08,0.015,0.135
		c0,0.055-0.005,0.1-0.015,0.135h-1.111c-0.01-0.035-0.015-0.08-0.015-0.135c0-0.055,0.005-0.095,0.015-0.135h0.22v-1.422
		c-0.075-0.095-0.19-0.13-0.315-0.13c-0.146,0-0.295,0.05-0.446,0.14v1.412h0.225c0.01,0.04,0.015,0.085,0.015,0.135
		c0,0.055-0.005,0.1-0.015,0.135h-1.181c-0.01-0.035-0.015-0.08-0.015-0.135c0-0.055,0.005-0.095,0.015-0.135h0.29v-1.412
		l-0.28-0.315v-0.085l0.781-0.195h0.08l0.065,0.446c0.28-0.346,0.521-0.446,0.781-0.446c0.315,0,0.561,0.13,0.641,0.44
		c0.291-0.35,0.526-0.44,0.786-0.44c0.36,0,0.666,0.18,0.666,0.676v1.332h0.285c0.01,0.04,0.015,0.08,0.015,0.135
		c0,0.055-0.005,0.1-0.015,0.135H44.573z"/>
</g>
</svg>
