<?xml version="1.0" encoding="utf-8"?>
<!-- Generator: Adobe Illustrator 16.0.0, SVG Export Plug-In . SVG Version: 6.00 Build 0)  -->
<!DOCTYPE svg PUBLIC "-//W3C//DTD SVG 1.1//EN" "http://www.w3.org/Graphics/SVG/1.1/DTD/svg11.dtd">
<svg version="1.1" id="_x31_" xmlns="http://www.w3.org/2000/svg" xmlns:xlink="http://www.w3.org/1999/xlink" x="0px" y="0px"
	 width="300px" height="462px" viewBox="0 0 100 154" enable-background="new 0 0 100 154" xml:space="preserve">
<g>
	<rect y="19" fill="#00ADD8" width="100" height="135"/>
	<rect fill="#FFFFFF" width="100" height="19"/>
	<path d="M85.742,27.778c4.707,0,8.523-3.816,8.523-8.523s-3.816-8.522-8.523-8.522s-8.523,3.815-8.523,8.522
		S81.035,27.778,85.742,27.778"/>
	<path d="M14.801,10.713c0.025,0,0.034,0,0.034-0.012c0-0.022-0.009-0.06-0.043-0.159l-0.124-0.359
		c-0.004-0.017-0.013-0.034-0.025-0.034c-0.013,0-0.026,0.013-0.035,0.029l-0.145,0.373c-0.039,0.085-0.056,0.132-0.056,0.154
		c0,0.004,0.004,0.008,0.017,0.008H14.801z M14.399,10.868c-0.03,0-0.06,0.026-0.077,0.068l-0.094,0.223
		c-0.06,0.137-0.111,0.265-0.111,0.346c0,0.132,0.239,0.064,0.239,0.146c0,0.03-0.017,0.047-0.077,0.047
		c-0.064,0-0.103-0.017-0.304-0.017c-0.201,0-0.244,0.017-0.291,0.017c-0.034,0-0.047-0.013-0.047-0.034
		c0-0.085,0.201-0.039,0.278-0.209l0.765-1.681c0.018-0.038,0.043-0.051,0.064-0.051s0.039,0.017,0.051,0.051l0.659,1.694
		c0.085,0.201,0.252,0.116,0.252,0.188c0,0.039-0.021,0.043-0.094,0.043c-0.089,0-0.183-0.017-0.329-0.017
		c-0.206,0-0.316,0.017-0.368,0.017c-0.051,0-0.064-0.013-0.064-0.039c0-0.09,0.256-0.026,0.256-0.124c0-0.077-0.03-0.171-0.141-0.5
		l-0.03-0.094c-0.017-0.047-0.047-0.073-0.085-0.073H14.399z"/>
	<path d="M17.534,11.466c0,0.077,0.077,0.12,0.308,0.12c0.402,0,0.573-0.223,0.573-0.458c0-0.286-0.214-0.449-0.59-0.449
		c-0.269,0-0.291,0.009-0.291,0.086V11.466z M17.534,10.53c0,0.051,0.039,0.056,0.273,0.056c0.347,0,0.479-0.154,0.479-0.359
		c0-0.273-0.158-0.376-0.513-0.376c-0.214,0-0.239,0.018-0.239,0.06V10.53z M18.354,10.556c0,0.047,0.376,0.132,0.376,0.53
		c0,0.381-0.342,0.595-1.035,0.595c-0.342,0-0.599,0.017-0.684,0.017c-0.064,0-0.094-0.017-0.094-0.047
		c0-0.051,0.077-0.051,0.175-0.064c0.073-0.008,0.124-0.051,0.124-0.141v-1.313c0-0.132-0.009-0.205-0.09-0.235
		c-0.12-0.047-0.201-0.021-0.201-0.068c0-0.035,0.013-0.056,0.064-0.056c0.115,0,0.252,0.013,0.419,0.004
		c0.192-0.008,0.337-0.021,0.569-0.021c0.333,0,0.599,0.179,0.599,0.462C18.577,10.457,18.354,10.538,18.354,10.556"/>
	<path d="M20.112,11.638c0.479,0,0.718-0.325,0.718-0.903c0-0.585-0.308-0.902-0.693-0.902c-0.393,0-0.709,0.317-0.709,0.902
		C19.428,11.312,19.667,11.638,20.112,11.638 M20.138,9.722c0.599,0,1.052,0.428,1.052,1.013c0,0.578-0.453,1.014-1.077,1.014
		c-0.616,0-1.061-0.436-1.061-1.014C19.052,10.149,19.497,9.722,20.138,9.722"/>
	<path d="M22.597,11.638c0.479,0,0.718-0.325,0.718-0.903c0-0.585-0.308-0.902-0.692-0.902c-0.394,0-0.71,0.317-0.71,0.902
		C21.913,11.312,22.152,11.638,22.597,11.638 M22.623,9.722c0.599,0,1.052,0.428,1.052,1.013c0,0.578-0.453,1.014-1.078,1.014
		c-0.616,0-1.061-0.436-1.061-1.014C21.536,10.149,21.981,9.722,22.623,9.722"/>
	<path d="M24.517,10.585c0,0.034,0.009,0.051,0.021,0.051c0.009,0,0.034-0.021,0.069-0.051l0.577-0.483
		c0.085-0.073,0.171-0.137,0.171-0.175s-0.047-0.043-0.098-0.043c-0.073-0.004-0.158,0.004-0.158-0.055
		c0-0.03,0.03-0.056,0.089-0.056c0.099,0,0.201,0.017,0.347,0.017c0.175,0,0.265-0.017,0.325-0.017c0.051,0,0.077,0.013,0.077,0.051
		c0,0.034-0.051,0.043-0.12,0.056c-0.09,0.017-0.167,0.056-0.227,0.098l-0.731,0.547c-0.013,0.013-0.026,0.021-0.026,0.034
		c0,0.017,0.013,0.021,0.026,0.034l0.825,0.766c0.244,0.227,0.381,0.244,0.381,0.299c0,0.043-0.034,0.039-0.081,0.039
		c-0.086,0-0.209-0.017-0.368-0.017c-0.214,0-0.308,0.017-0.372,0.017c-0.034,0-0.06-0.017-0.06-0.047
		c0-0.111,0.218-0.017,0.218-0.107c0-0.039-0.051-0.094-0.167-0.201l-0.607-0.547c-0.017-0.017-0.047-0.047-0.064-0.047
		c-0.026,0-0.047,0.022-0.047,0.051v0.561c0,0.218,0.073,0.223,0.176,0.235c0.081,0.009,0.115,0.026,0.115,0.056
		c0,0.034-0.017,0.047-0.082,0.047c-0.098,0-0.222-0.017-0.363-0.017c-0.142,0-0.278,0.017-0.385,0.017
		c-0.042,0-0.06-0.017-0.06-0.047c0-0.039,0.021-0.056,0.12-0.064c0.12-0.009,0.162-0.061,0.162-0.154v-1.394
		c0-0.111-0.038-0.15-0.162-0.158c-0.081-0.004-0.098-0.021-0.098-0.051c0-0.039,0.021-0.056,0.081-0.056
		c0.064,0,0.146,0.017,0.364,0.017c0.201,0,0.27-0.017,0.333-0.017c0.043,0,0.064,0.021,0.064,0.051c0,0.043-0.052,0.06-0.146,0.06
		c-0.082,0-0.12,0.035-0.12,0.163V10.585z"/>
	<path d="M28.335,10.713c0.026,0,0.034,0,0.034-0.012c0-0.022-0.008-0.06-0.043-0.159l-0.124-0.359
		c-0.004-0.017-0.013-0.034-0.026-0.034c-0.013,0-0.025,0.013-0.034,0.029l-0.145,0.373c-0.039,0.085-0.056,0.132-0.056,0.154
		c0,0.004,0.004,0.008,0.017,0.008H28.335z M27.934,10.868c-0.03,0-0.06,0.026-0.077,0.068l-0.094,0.223
		c-0.061,0.137-0.111,0.265-0.111,0.346c0,0.132,0.239,0.064,0.239,0.146c0,0.03-0.017,0.047-0.077,0.047
		c-0.064,0-0.102-0.017-0.304-0.017c-0.201,0-0.244,0.017-0.291,0.017c-0.034,0-0.047-0.013-0.047-0.034
		c0-0.085,0.201-0.039,0.278-0.209l0.765-1.681c0.017-0.038,0.043-0.051,0.064-0.051s0.039,0.017,0.051,0.051l0.659,1.694
		c0.085,0.201,0.252,0.116,0.252,0.188c0,0.039-0.021,0.043-0.094,0.043c-0.09,0-0.184-0.017-0.329-0.017
		c-0.206,0-0.317,0.017-0.368,0.017c-0.051,0-0.064-0.013-0.064-0.039c0-0.09,0.256-0.026,0.256-0.124c0-0.077-0.03-0.171-0.141-0.5
		l-0.03-0.094c-0.017-0.047-0.047-0.073-0.085-0.073H27.934z"/>
	<path d="M29.973,10.692c0,0.068,0.06,0.111,0.252,0.111c0.274,0,0.5-0.184,0.5-0.496c0-0.287-0.227-0.44-0.552-0.44
		c-0.158,0-0.201,0.038-0.201,0.141V10.692z M29.657,10.042c0-0.149-0.056-0.154-0.248-0.175c-0.039-0.004-0.051-0.013-0.051-0.047
		c0-0.025,0.03-0.047,0.085-0.047c0.077,0,0.214,0.017,0.385,0.017c0.206,0,0.342-0.017,0.59-0.017c0.308,0,0.624,0.137,0.624,0.521
		c0,0.385-0.29,0.637-0.603,0.637c-0.27,0-0.359-0.034-0.466-0.064v0.585c0,0.094,0.03,0.125,0.128,0.133
		c0.137,0.013,0.163,0.03,0.163,0.06c0,0.039-0.013,0.051-0.064,0.051c-0.141,0-0.244-0.017-0.389-0.017
		c-0.146,0-0.291,0.017-0.385,0.017c-0.047,0-0.068-0.013-0.068-0.047c0-0.06,0.077-0.056,0.15-0.064
		c0.077-0.008,0.149-0.021,0.149-0.12V10.042z"/>
	<path d="M32.073,10.713c0.026,0,0.034,0,0.034-0.012c0-0.022-0.008-0.06-0.043-0.159l-0.124-0.359
		c-0.004-0.017-0.013-0.034-0.026-0.034c-0.013,0-0.025,0.013-0.034,0.029l-0.145,0.373c-0.039,0.085-0.056,0.132-0.056,0.154
		c0,0.004,0.004,0.008,0.017,0.008H32.073z M31.671,10.868c-0.03,0-0.06,0.026-0.077,0.068L31.5,11.159
		c-0.06,0.137-0.111,0.265-0.111,0.346c0,0.132,0.239,0.064,0.239,0.146c0,0.03-0.017,0.047-0.077,0.047
		c-0.064,0-0.102-0.017-0.303-0.017c-0.201,0-0.244,0.017-0.291,0.017c-0.034,0-0.047-0.013-0.047-0.034
		c0-0.085,0.201-0.039,0.278-0.209l0.766-1.681c0.017-0.038,0.043-0.051,0.064-0.051c0.021,0,0.039,0.017,0.052,0.051l0.658,1.694
		c0.085,0.201,0.252,0.116,0.252,0.188c0,0.039-0.021,0.043-0.094,0.043c-0.09,0-0.184-0.017-0.329-0.017
		c-0.206,0-0.316,0.017-0.368,0.017s-0.064-0.013-0.064-0.039c0-0.09,0.257-0.026,0.257-0.124c0-0.077-0.03-0.171-0.141-0.5
		l-0.03-0.094c-0.017-0.047-0.047-0.073-0.086-0.073H31.671z"/>
	<path d="M33.835,9.867c-0.171,0-0.201,0.021-0.201,0.077v0.633c0,0.069,0.035,0.086,0.223,0.086c0.303,0,0.444-0.142,0.444-0.385
		C34.301,10.008,34.13,9.867,33.835,9.867 M34.232,10.718c0,0.025,0.021,0.042,0.06,0.111l0.342,0.586
		c0.073,0.124,0.146,0.149,0.244,0.171c0.051,0.008,0.081,0.017,0.081,0.055c0,0.025-0.021,0.039-0.064,0.039
		c-0.094,0-0.312,0.017-0.393,0.017c-0.03,0-0.051-0.013-0.082-0.068l-0.415-0.744c-0.056-0.099-0.137-0.146-0.24-0.146
		c-0.098,0-0.132,0.034-0.132,0.128v0.59c0,0.077,0.039,0.12,0.128,0.128c0.133,0.013,0.179,0.025,0.179,0.068
		c0,0.034-0.017,0.042-0.085,0.042c-0.111,0-0.197-0.017-0.377-0.017c-0.205,0-0.307,0.017-0.419,0.017
		c-0.008,0-0.051-0.009-0.051-0.039c0-0.056,0.077-0.064,0.153-0.072c0.077-0.009,0.154-0.03,0.154-0.133V9.978
		c0-0.081-0.026-0.09-0.111-0.107c-0.068-0.013-0.137-0.004-0.137-0.047s0.021-0.051,0.077-0.051c0.081,0,0.209,0.017,0.385,0.017
		c0.196,0,0.364-0.017,0.487-0.017c0.368,0,0.573,0.205,0.573,0.462C34.591,10.663,34.232,10.649,34.232,10.718"/>
	<path d="M36.187,11.398c0,0.132,0.094,0.18,0.188,0.188c0.094,0.008,0.188,0.013,0.188,0.069c0,0.038-0.043,0.042-0.068,0.042
		c-0.154,0-0.303-0.017-0.457-0.017c-0.154,0-0.304,0.017-0.458,0.017c-0.034,0-0.06-0.017-0.06-0.047
		c0-0.056,0.09-0.056,0.176-0.064c0.089-0.008,0.175-0.056,0.175-0.188v-1.172c0-0.286-0.03-0.308-0.188-0.308
		c-0.53,0-0.513,0.342-0.62,0.342c-0.042,0-0.047-0.017-0.047-0.042c0-0.034,0.021-0.077,0.103-0.316
		c0.068-0.214,0.085-0.24,0.124-0.24c0.047,0,0.09,0.163,0.218,0.163h1.095c0.085,0,0.235-0.009,0.316-0.051
		c0.056-0.026,0.056-0.085,0.094-0.085c0.042,0,0.034,0.051,0.034,0.27c0,0.239-0.034,0.278-0.068,0.278
		c-0.047,0-0.042-0.06-0.089-0.163c-0.043-0.09-0.12-0.154-0.394-0.154c-0.235,0-0.26,0.021-0.26,0.308V11.398z"/>
	<path fill="#E8E6D4" d="M12.823,10.705c0,1.031-0.836,1.867-1.867,1.867c-1.031,0-1.867-0.835-1.867-1.867
		c0-1.031,0.836-1.867,1.867-1.867C11.987,8.838,12.823,9.674,12.823,10.705"/>
	<path fill="#998F52" d="M12.414,9.006c-0.013,0.046-0.01,0.099-0.036,0.141c0.002,0.031-0.023,0.051-0.016,0.084
		c-0.036,0.072-0.051,0.153-0.092,0.225c-0.002,0.051-0.036,0.095-0.049,0.143c-0.031,0.107-0.102,0.202-0.143,0.289
		c-0.046,0.01-0.023,0.056-0.056,0.074c-0.026,0.062-0.094,0.103-0.139,0.162c-0.082,0.11-0.225,0.141-0.33,0.202
		c-0.043,0.021-0.053,0.064-0.107,0.062c-0.013-0.031-0.008-0.116-0.008-0.116c0.016-0.036-0.015-0.069,0.008-0.107
		c0.008-0.077-0.018-0.169,0.023-0.235c0.003-0.115,0.062-0.197,0.107-0.279c0.125-0.159,0.322-0.273,0.478-0.412
		c0.028-0.007,0.044-0.025,0.064-0.045c0.023-0.023,0.064-0.021,0.069-0.059c0.056-0.039,0.121-0.103,0.18-0.138
		C12.384,8.999,12.407,8.989,12.414,9.006"/>
	<path fill="#998F52" d="M10.943,9.658c0,0.036,0.033,0.046,0.03,0.082c0.021,0.011,0.018,0.097,0.042,0.102
		c-0.008,0.046,0.013,0.087,0.021,0.125l0.012,0.409c0,0-0.031,0.171-0.051,0.253c-0.028,0.007,0,0.049-0.023,0.059
		c0.003,0.041-0.023,0.079-0.041,0.11c-0.015,0.069-0.077,0.125-0.11,0.184c-0.019,0.007-0.031,0.023-0.033,0.043
		c-0.069,0.069-0.1,0.151-0.151,0.23c-0.031,0.026-0.021-0.028-0.042-0.038c-0.015-0.046-0.03-0.097-0.056-0.133
		c0-0.02-0.005-0.041-0.023-0.051c-0.038-0.099-0.072-0.212-0.097-0.322c0.005-0.03-0.007-0.066,0.01-0.092
		c-0.015-0.066,0.026-0.118,0.024-0.192c0.038-0.036,0.03-0.112,0.076-0.143c-0.002-0.056,0.044-0.076,0.046-0.13
		c0.026-0.043,0.044-0.072,0.069-0.118c0.01-0.031,0.015-0.069,0.038-0.097c0.029-0.026,0.052-0.123,0.069-0.143
		c0.019-0.013,0.019-0.044,0.042-0.051c0.015-0.029,0.028-0.075,0.056-0.098c-0.013-0.041,0.039-0.043,0.036-0.083
		C10.949,9.559,10.92,9.63,10.943,9.658"/>
	<path fill="#998F52" d="M12.468,10.298c-0.043,0.064-0.123,0.092-0.151,0.171c-0.072,0.069-0.118,0.146-0.189,0.22
		c-0.109,0.12-0.222,0.23-0.368,0.312c-0.019,0.01-0.049,0.005-0.052,0.028c-0.041,0.025-0.094,0.038-0.143,0.051
		c-0.146,0.059-0.299,0.113-0.468,0.098c-0.057-0.008-0.128,0.056-0.159,0c-0.005-0.075,0.083-0.118,0.103-0.172
		c0.041-0.015,0.051-0.051,0.074-0.076l0.023-0.028c0,0,0.056-0.069,0.097-0.097c0.123-0.103,0.23-0.184,0.353-0.287
		c0.059-0.015,0.107-0.038,0.156-0.071c0.061-0.034,0.107-0.021,0.166-0.057c0.097-0.033,0.215-0.066,0.314-0.102
		c0.09,0.01,0.154-0.054,0.243-0.031V10.298z"/>
	<path fill="#998F52" d="M10.705,11.492c0.228,0.016,0.453,0.064,0.683,0.046c-0.002,0.015-0.018,0.046-0.041,0.046
		c-0.025,0.016-0.171,0.097-0.171,0.097c-0.046-0.008-0.059,0.026-0.097,0.031c-0.021,0.025-0.077,0.023-0.097,0.056
		c-0.036,0.015-0.074,0.041-0.105,0.064c-0.051-0.01-0.059,0.051-0.11,0.041c-0.123,0.077-0.327,0.095-0.476,0.051
		c-0.074-0.025-0.164-0.021-0.23-0.074c-0.018,0.002-0.049-0.013-0.059-0.028c-0.031-0.025-0.11-0.034-0.105-0.082
		c0.051-0.023,0.087-0.066,0.138-0.082c0,0,0.044-0.031,0.069-0.051c0.007-0.002,0.063-0.044,0.1-0.056
		c0.028,0.01,0.028-0.021,0.051-0.023c0.121-0.036,0.266-0.066,0.397-0.028L10.705,11.492z"/>
	<path fill="#FFFFFF" d="M85.483,15.851l-0.881-1.259l-0.109-0.197v1.224l0.061,0.091h0.159c0.005,0.018,0.008,0.038,0.008,0.058
		c0,0.02-0.002,0.041-0.008,0.058h-0.575c-0.005-0.018-0.008-0.038-0.008-0.058c0-0.023,0.002-0.038,0.008-0.058h0.146l0.061-0.091
		v-1.285h-0.207c-0.005-0.021-0.008-0.038-0.008-0.058c0-0.021,0.002-0.038,0.008-0.058h0.507l0.719,1.03l0.108,0.197v-1.02
		l-0.061-0.091h-0.162c-0.005-0.021-0.008-0.038-0.008-0.058c0-0.021,0.003-0.041,0.008-0.058h0.555
		c0.005,0.018,0.007,0.038,0.007,0.058c0,0.02-0.002,0.041-0.007,0.058h-0.124l-0.061,0.091v1.426H85.483z"/>
	<path fill="#FFFFFF" d="M86.554,15.346c-0.343,0-0.585-0.232-0.585-0.585c0-0.333,0.27-0.588,0.593-0.588
		c0.343,0,0.586,0.232,0.586,0.585C87.147,15.091,86.877,15.346,86.554,15.346z M86.907,14.758c0-0.277-0.141-0.474-0.346-0.474
		c-0.197,0-0.353,0.174-0.353,0.477c0,0.277,0.141,0.475,0.346,0.475C86.751,15.235,86.907,15.061,86.907,14.758z"/>
	<path fill="#FFFFFF" d="M87.517,15.346c-0.096,0-0.154-0.071-0.154-0.154c0-0.091,0.058-0.157,0.157-0.157
		c0.096,0,0.154,0.071,0.154,0.157C87.673,15.28,87.615,15.346,87.517,15.346z"/>
	<rect x="9.089" y="95.959" width="72.727" height="0.252"/>
	<rect x="9.089" y="135.606" width="72.727" height="0.252"/>
	<path fill="#FFFFFF" d="M87.853,22.644c0,1.326-1.401,2.361-4.255,3.005l-0.189-0.467c2.349-0.821,3.182-1.49,3.182-2.513
		c0-0.821-0.644-1.187-1.452-1.187c-0.341,0-0.619,0.038-0.821,0.101c-0.038-0.088-0.088-0.252-0.088-0.429
		c0-0.088,0.012-0.177,0.025-0.24c1.515-0.012,2.159-0.669,2.159-1.502c0-0.77-0.505-1.2-1.313-1.2
		c-0.644,0-1.074,0.252-1.313,0.644l-0.214-0.303c0.214-0.581,0.833-1.187,1.944-1.187c1.25,0,2.058,0.783,2.058,1.806
		c0,0.846-0.606,1.642-1.831,1.856C87.146,21.028,87.853,21.685,87.853,22.644z"/>
	<path fill="#FFFFFF" d="M11.768,100.225v14.576h-1.241v-14.576H9.128v-1.182h4.058v1.182H11.768z"/>
	<path fill="#FFFFFF" d="M16.771,114.801v-7.367h-1.595v7.367h-1.221V99.043h1.221v7.209h1.595v-7.209h1.222v15.758H16.771z"/>
	<path fill="#FFFFFF" d="M19.253,114.801V99.043h3.526v1.182h-2.305v6.027h2.029v1.182h-2.029v6.185h2.324v1.182H19.253z"/>
	<path fill="#FFFFFF" d="M25.891,114.801V99.043h3.526v1.182h-2.305v6.027h2.029v1.182h-2.029v6.185h2.324v1.182H25.891z"/>
	<path fill="#FFFFFF" d="M30.165,114.801V99.043h1.241v14.577h2.344v1.182H30.165z"/>
	<path fill="#FFFFFF" d="M34.577,114.801V99.043h3.526v1.182h-2.304v6.027h2.029v1.182h-2.029v6.185h2.324v1.182H34.577z"/>
	<path fill="#FFFFFF" d="M43.657,114.801v-10.893l-1.339,10.893h-1.064l-1.26-10.873v10.873h-1.123V99.043h1.537l1.398,11.819
		l1.477-11.819h1.497v15.758H43.657z"/>
	<path fill="#FFFFFF" d="M46.021,114.801V99.043h3.526v1.182h-2.304v6.027h2.029v1.182h-2.029v6.185h2.324v1.182H46.021z"/>
	<path fill="#FFFFFF" d="M52.934,114.801l-1.536-10.223v10.223h-1.103V99.043h1.32l1.576,11.149V99.043h1.123v15.758H52.934z"/>
	<path fill="#FFFFFF" d="M57.74,100.225v14.576H56.5v-14.576h-1.399v-1.182h4.058v1.182H57.74z"/>
	<path fill="#FFFFFF" d="M61.385,114.919c-1.28,0-1.99-0.729-1.99-2.009v-2.226h1.143v1.99c0,0.827,0.315,1.123,0.788,1.123
		c0.532,0,0.827-0.354,0.827-1.655c0-1.773-0.217-2.876-0.906-4.412c-0.177-0.375-0.532-1.123-0.749-1.556
		c-0.808-1.596-1.182-2.718-1.182-4.472c0-1.772,0.769-2.738,2.088-2.738c1.418,0,1.931,1.064,1.95,2.62
		c0,0.099,0.02,1.773,0.02,1.773h-1.202v-1.733c0-0.926-0.157-1.458-0.788-1.458c-0.591,0-0.788,0.453-0.788,1.654
		c0,1.261,0.335,2.423,1.005,3.684c0.236,0.453,0.512,0.985,0.748,1.478c0.769,1.596,1.083,3.033,1.083,4.944
		C63.433,114.131,62.685,114.919,61.385,114.919z"/>
	<path fill="#FFFFFF" d="M70.8,101.604c0,0.709,0.02,3.703,0.02,5.259c0,1.733,0,4.412-0.02,5.437
		c-0.059,1.733-0.689,2.62-2.127,2.62s-2.049-0.827-2.088-2.58c-0.02-0.434-0.02-3.762-0.02-5.457c0-1.458,0-4.688,0.02-5.22
		c0.039-1.812,0.65-2.699,2.088-2.699C70.051,98.964,70.741,99.772,70.8,101.604z M69.52,112.536
		c0.039-0.689,0.039-4.432,0.039-5.634c0-1.063,0-4.767-0.02-5.397c-0.02-0.906-0.217-1.3-0.847-1.3
		c-0.709,0-0.847,0.512-0.847,1.319c0,0.65-0.02,4.294-0.02,5.437c0,1.201,0,4.905,0.02,5.574c0.02,0.669,0.197,1.162,0.867,1.162
		C69.303,113.698,69.48,113.167,69.52,112.536z"/>
	<path fill="#FFFFFF" d="M73.164,100.264v5.988h2.147v1.182h-2.147v7.367h-1.221V99.043h3.526v1.221H73.164z"/>
	<path d="M13.718,130.303c0,1.635-0.768,2.541-2.088,2.541c-1.359,0-1.99-0.827-2.068-2.207c-0.059-1.359-0.059-4.452-0.059-5.909
		s0.02-4.767,0.02-5.318c0.039-1.891,0.866-2.521,2.265-2.521c1.28,0,1.891,0.867,1.911,2.757c0,0.552,0,1.615,0,2.442h-1.221
		c0-0.866,0.02-2.403,0-3.033c-0.02-0.65-0.355-0.926-0.847-0.926c-0.532,0-0.847,0.394-0.847,1.083
		c-0.02,0.689-0.02,4.353-0.02,5.515c0,1.359,0.02,5.102,0.039,5.535c0.059,1.083,0.375,1.359,0.867,1.359
		c0.434,0,0.847-0.217,0.847-1.458c0-1.004,0-2.285,0-2.541h1.202C13.718,128.077,13.718,129.85,13.718,130.303z"/>
	<path d="M18.958,119.528c0,0.709,0.02,3.703,0.02,5.259c0,1.733,0,4.412-0.02,5.437c-0.059,1.733-0.689,2.62-2.127,2.62
		s-2.048-0.827-2.088-2.581c-0.02-0.434-0.02-3.762-0.02-5.456c0-1.458,0-4.688,0.02-5.22c0.04-1.812,0.65-2.698,2.088-2.698
		C18.209,116.889,18.898,117.696,18.958,119.528z M17.677,130.46c0.04-0.689,0.04-4.432,0.04-5.633c0-1.063,0-4.767-0.02-5.397
		c-0.02-0.906-0.217-1.3-0.847-1.3c-0.709,0-0.847,0.512-0.847,1.32c0,0.65-0.02,4.294-0.02,5.437c0,1.202,0,4.905,0.02,5.574
		c0.02,0.67,0.197,1.163,0.867,1.163C17.46,131.623,17.638,131.09,17.677,130.46z"/>
	<path d="M22.72,132.726l-1.537-10.223v10.223H20.08v-15.758h1.32l1.576,11.149v-11.149h1.123v15.758H22.72z"/>
	<path d="M27.508,118.149v14.576h-1.241v-14.576h-1.398v-1.182h4.058v1.182H27.508z"/>
	<path d="M29.694,132.726v-15.758h3.526v1.182h-2.305v6.027h2.029v1.182h-2.029v6.185h2.324v1.182H29.694z"/>
	<path d="M36.608,132.726l-1.537-10.223v10.223h-1.103v-15.758h1.32l1.576,11.149v-11.149h1.123v15.758H36.608z"/>
	<path d="M41.414,118.149v14.576h-1.241v-14.576h-1.398v-1.182h4.058v1.182H41.414z"/>
	<path d="M47.559,132.844c-1.28,0-1.989-0.729-1.989-2.009v-2.226h1.143v1.99c0,0.827,0.315,1.123,0.788,1.123
		c0.532,0,0.827-0.354,0.827-1.654c0-1.773-0.216-2.876-0.906-4.413c-0.177-0.374-0.532-1.123-0.749-1.556
		c-0.808-1.596-1.182-2.719-1.182-4.472c0-1.773,0.769-2.738,2.088-2.738c1.418,0,1.931,1.063,1.95,2.62
		c0,0.099,0.02,1.773,0.02,1.773h-1.202v-1.733c0-0.926-0.158-1.458-0.788-1.458c-0.591,0-0.788,0.453-0.788,1.655
		c0,1.261,0.334,2.423,1.004,3.684c0.236,0.453,0.512,0.985,0.749,1.478c0.768,1.595,1.083,3.033,1.083,4.944
		C49.608,132.056,48.859,132.844,47.559,132.844z"/>
	<path d="M52.523,118.149v14.576h-1.241v-14.576h-1.398v-1.182h4.058v1.182H52.523z"/>
	<path d="M58.314,123.901c-0.138,0.394-0.434,0.906-0.689,1.005l1.28,7.82h-1.28l-1.123-7.446l-0.611,0.02v7.426h-1.182v-15.758
		h1.871c1.083,0,1.596,0.591,1.832,1.635c0.098,0.453,0.158,1.379,0.158,2.62C58.57,122.522,58.491,123.33,58.314,123.901z
		 M57.211,119.173c-0.04-0.591-0.295-1.024-0.729-1.024h-0.571c0,0,0,5.594,0,5.988c0.02,0,0.453,0,0.63-0.039
		c0.335-0.04,0.473-0.296,0.552-0.552c0.138-0.374,0.197-1.517,0.197-2.127C57.29,120.611,57.231,119.371,57.211,119.173z"/>
	<path d="M60.382,132.726h-1.201l1.635-15.758h1.635l1.28,15.758h-1.221c0,0-0.217-3.408-0.236-3.841c0,0-1.576,0-1.595,0
		C60.678,129.318,60.382,132.726,60.382,132.726z M61.662,121.439c0-0.395-0.098-3.014-0.098-3.014s-0.118,2.6-0.138,2.994
		c-0.039,0.551-0.63,6.284-0.63,6.284h1.398C62.194,127.703,61.662,121.833,61.662,121.439z"/>
	<path d="M66.329,118.149v14.576h-1.241v-14.576h-1.398v-1.182h4.058v1.182H66.329z"/>
	<path d="M68.515,132.726v-15.758h3.526v1.182h-2.305v6.027h2.029v1.182h-2.029v6.185h2.324v1.182H68.515z"/>
	<path d="M75.862,132.726l-0.06-0.552c-0.197,0.434-0.729,0.65-1.221,0.65c-1.083,0-1.792-0.61-1.851-2.048
		c-0.02-0.434-0.06-4.471-0.06-5.929c0-1.458-0.02-4.393,0.04-5.653c0.04-1.32,0.67-2.325,1.99-2.325c1.398,0,1.852,1.024,1.91,1.97
		c0.02,0.749,0,3.034,0,3.034h-1.201c0,0,0-1.556,0-2.659c0-0.808-0.256-1.063-0.709-1.063c-0.434,0-0.749,0.315-0.749,1.162
		c0,0.946-0.02,4.511-0.02,5.555c0,0.788,0.02,4.944,0.02,5.614c0,0.768,0.236,1.162,0.768,1.162c0.492,0,0.768-0.354,0.768-1.083
		c0-0.492,0-5.003,0-5.003h-1.024v-1.182h2.206c0,0,0,3.821,0,4.826c0,1.793,0.02,3.526,0.02,3.526H75.862z"/>
	<path d="M80.097,126.855v5.87h-1.28v-5.811l-1.792-9.947h1.241c0,0,1.202,7.091,1.221,7.918c0.02-0.847,1.281-7.918,1.281-7.918
		h1.26L80.097,126.855z"/>
	<path fill="#FFFFFF" d="M9.551,93.474c-0.01-0.035-0.015-0.096-0.015-0.136c0-0.045,0.005-0.106,0.015-0.146h0.354v-2.652H9.551
		c-0.01-0.041-0.015-0.101-0.015-0.142s0.005-0.106,0.015-0.142h2.061l0.061-0.131h0.369v0.732l-0.338,0.056l-0.096-0.232
		c-0.025-0.071-0.055-0.121-0.086-0.136h-0.894v1.167h0.849c0.03-0.035,0.071-0.116,0.086-0.197l0.015-0.086h0.313v0.854h-0.313
		l-0.015-0.081c-0.015-0.085-0.05-0.162-0.086-0.202h-0.849v1.187h0.318c0.48,0,0.646-0.025,0.707-0.07l0.157-0.379h0.338
		l-0.056,0.737H9.551z"/>
	<path fill="#FFFFFF" d="M12.449,93.474c-0.01-0.035-0.015-0.081-0.015-0.136s0.005-0.096,0.015-0.136h0.293v-1.425l-0.283-0.318
		v-0.086l0.788-0.197h0.081l0.065,0.53c0.268-0.424,0.439-0.53,0.652-0.53c0.237,0,0.364,0.151,0.364,0.328
		c0,0.162-0.076,0.298-0.212,0.409l-0.086,0.071l-0.399-0.237c-0.056,0-0.136,0.02-0.298,0.131v1.324h0.318
		c0.01,0.041,0.015,0.086,0.015,0.136c0,0.056-0.005,0.101-0.015,0.136H12.449z"/>
	<path fill="#FFFFFF" d="M14.581,93.474c-0.01-0.035-0.015-0.081-0.015-0.136s0.005-0.096,0.015-0.136h0.293v-1.425l-0.283-0.318
		v-0.086l0.864-0.197h0.091v2.026h0.288c0.01,0.041,0.015,0.081,0.015,0.136s-0.005,0.101-0.015,0.136H14.581z M14.798,90.453
		c0-0.222,0.116-0.389,0.384-0.389c0.252,0,0.374,0.177,0.374,0.389c-0.005,0.217-0.121,0.384-0.379,0.384
		C14.914,90.837,14.798,90.66,14.798,90.453z"/>
	<path fill="#FFFFFF" d="M17.561,93.474c-0.01-0.035-0.015-0.085-0.015-0.142c0-0.055,0.005-0.09,0.015-0.131h0.242v-1.435
		c-0.076-0.096-0.207-0.131-0.333-0.131c-0.146,0-0.329,0.05-0.48,0.141v1.425h0.242c0.01,0.041,0.015,0.081,0.015,0.131
		c0,0.056-0.005,0.106-0.015,0.142h-1.207c-0.01-0.035-0.015-0.085-0.015-0.142c0-0.055,0.005-0.09,0.015-0.131h0.293v-1.425
		l-0.283-0.318v-0.086l0.788-0.197h0.081l0.065,0.45c0.293-0.344,0.551-0.45,0.839-0.45c0.358,0,0.667,0.182,0.667,0.682v1.344
		h0.288c0.01,0.041,0.015,0.076,0.015,0.131c0,0.056-0.005,0.106-0.015,0.142H17.561z"/>
	<path fill="#FFFFFF" d="M22.445,93.474v-0.151l-0.95-1.263l-0.187-0.035v1.167h0.344c0.01,0.035,0.015,0.106,0.015,0.146
		s-0.005,0.101-0.015,0.136h-1.419c-0.01-0.035-0.015-0.096-0.015-0.136c0-0.045,0.005-0.106,0.015-0.146h0.354v-2.652h-0.354
		c-0.01-0.041-0.015-0.101-0.015-0.142s0.005-0.106,0.015-0.142h1.43c0.01,0.036,0.015,0.101,0.015,0.142s-0.005,0.106-0.015,0.142
		h-0.354v1.207h0.187l1.096-1.045l-0.055-0.162h-0.253c-0.01-0.041-0.015-0.101-0.015-0.142s0.005-0.106,0.015-0.142h1.182
		c0.01,0.036,0.015,0.101,0.015,0.142s-0.005,0.106-0.015,0.142h-0.217l-1.202,1.086l1.212,1.566h0.217
		c0.01,0.035,0.015,0.106,0.015,0.146s-0.005,0.101-0.015,0.136H22.445z"/>
	<path fill="#FFFFFF" d="M23.737,93.474c-0.01-0.035-0.015-0.081-0.015-0.136s0.005-0.096,0.015-0.136h0.293v-1.425l-0.283-0.318
		v-0.086l0.864-0.197h0.091v2.026h0.288c0.01,0.041,0.015,0.081,0.015,0.136S25,93.438,24.99,93.474H23.737z M23.955,90.453
		c0-0.222,0.116-0.389,0.384-0.389c0.252,0,0.374,0.177,0.374,0.389c-0.005,0.217-0.122,0.384-0.379,0.384
		C24.071,90.837,23.955,90.66,23.955,90.453z"/>
	<path fill="#FFFFFF" d="M25.202,93.509v-0.626l0.318-0.041l0.061,0.243c0.091,0.07,0.247,0.116,0.404,0.116
		c0.212,0,0.329-0.081,0.329-0.252c0-0.399-1.096-0.243-1.096-1.056c0-0.404,0.349-0.702,0.808-0.702
		c0.212,0,0.389,0.076,0.475,0.177l0.021-0.177h0.343v0.576l-0.323,0.046l-0.061-0.228c-0.071-0.05-0.207-0.081-0.338-0.081
		c-0.197,0-0.308,0.071-0.308,0.217c0,0.369,1.096,0.222,1.096,1.061c0,0.429-0.354,0.728-0.869,0.728
		c-0.202,0-0.384-0.056-0.5-0.177l-0.02,0.177H25.202z"/>
	<path fill="#FFFFFF" d="M27.242,93.509v-0.626l0.318-0.041l0.061,0.243c0.091,0.07,0.248,0.116,0.404,0.116
		c0.212,0,0.328-0.081,0.328-0.252c0-0.399-1.096-0.243-1.096-1.056c0-0.404,0.349-0.702,0.809-0.702
		c0.212,0,0.389,0.076,0.475,0.177l0.02-0.177h0.344v0.576l-0.323,0.046l-0.061-0.228c-0.071-0.05-0.208-0.081-0.339-0.081
		c-0.197,0-0.308,0.071-0.308,0.217c0,0.369,1.096,0.222,1.096,1.061c0,0.429-0.354,0.728-0.869,0.728
		c-0.202,0-0.384-0.056-0.5-0.177l-0.021,0.177H27.242z"/>
	<path fill="#FFFFFF" d="M29.874,93.524c-0.354,0-0.586-0.197-0.586-0.536c0-0.495,0.566-0.707,1.177-0.758v-0.616
		c-0.051-0.101-0.217-0.182-0.399-0.182c-0.035,0-0.07,0.005-0.086,0.01l-0.106,0.611h-0.167c-0.283,0-0.399-0.081-0.399-0.268
		c0-0.303,0.455-0.611,1.041-0.611c0.47,0,0.778,0.243,0.778,0.712c0,0.076-0.035,1.146-0.035,1.258
		c0.04,0.025,0.091,0.04,0.156,0.04c0.061,0,0.116-0.02,0.162-0.065l0.025,0.182c-0.065,0.126-0.227,0.222-0.389,0.222
		c-0.223,0-0.399-0.076-0.551-0.278C30.258,93.469,30.065,93.524,29.874,93.524z M30.465,92.413l-0.232,0.065
		c-0.232,0.061-0.308,0.167-0.308,0.369c0,0.212,0.091,0.308,0.303,0.308c0.076,0,0.182-0.02,0.237-0.045V92.413z"/>
	<path fill="#FFFFFF" d="M33.137,93.474c-0.01-0.035-0.015-0.085-0.015-0.142c0-0.055,0.005-0.09,0.015-0.131h0.242v-1.435
		c-0.076-0.096-0.207-0.131-0.333-0.131c-0.146,0-0.328,0.05-0.48,0.141v1.425h0.243c0.01,0.041,0.015,0.081,0.015,0.131
		c0,0.056-0.005,0.106-0.015,0.142h-1.208c-0.01-0.035-0.015-0.085-0.015-0.142c0-0.055,0.005-0.09,0.015-0.131h0.293v-1.425
		l-0.283-0.318v-0.086l0.788-0.197h0.081l0.065,0.45c0.293-0.344,0.551-0.45,0.838-0.45c0.359,0,0.667,0.182,0.667,0.682v1.344
		h0.288c0.01,0.041,0.015,0.076,0.015,0.131c0,0.056-0.005,0.106-0.015,0.142H33.137z"/>
	<path fill="#FFFFFF" d="M36.485,92.958c-0.167,0.338-0.479,0.566-0.884,0.566c-0.672,0-1.152-0.435-1.152-1.116
		c0-0.743,0.536-1.233,1.157-1.233c0.581,0,0.919,0.323,0.919,0.778c0,0.096-0.01,0.172-0.025,0.243h-1.364
		c-0.005,0.04-0.005,0.066-0.005,0.091c0,0.435,0.263,0.738,0.728,0.738c0.247,0,0.439-0.091,0.586-0.228L36.485,92.958z
		 M35.879,91.948c0.005-0.05,0.005-0.096,0.005-0.131c0-0.096-0.015-0.217-0.03-0.268c-0.015-0.05-0.045-0.076-0.096-0.09
		c-0.051-0.016-0.122-0.025-0.177-0.025c-0.05,0-0.131,0.01-0.171,0.02c-0.036,0.01-0.061,0.02-0.086,0.045
		c-0.066,0.066-0.151,0.283-0.172,0.45H35.879z"/>
</g>
</svg>
