<?xml version="1.0" encoding="utf-8"?>
<!-- Generator: Adobe Illustrator 17.1.0, SVG Export Plug-In . SVG Version: 6.00 Build 0)  -->
<!DOCTYPE svg PUBLIC "-//W3C//DTD SVG 1.1//EN" "http://www.w3.org/Graphics/SVG/1.1/DTD/svg11.dtd">
<svg version="1.1" id="_x38__1_" xmlns="http://www.w3.org/2000/svg" xmlns:xlink="http://www.w3.org/1999/xlink" x="0px" y="0px"
	 width="100px" height="154px" viewBox="0 0 100 154" enable-background="new 0 0 100 154" xml:space="preserve">
<rect y="28" fill="#3C7D9A" width="100" height="126"/>
<rect fill="#FFFFFF" width="100" height="28"/>
<path fill="#231F20" d="M81,38c5.5,0,10-4.5,10-10s-4.5-10-10-10c-5.5,0-10,4.5-10,10S75.5,38,81,38"/>
<g>
	<g>
		<path fill="#ECE6D4" d="M17,17.6c0,1.4-1.1,2.5-2.5,2.5c-1.4,0-2.5-1.1-2.5-2.5c0-1.4,1.1-2.5,2.5-2.5C15.9,15.1,17,16.2,17,17.6"
			/>
		<g>
			<path fill="#8E7F33" d="M13.4,18.7c-0.2-0.2-0.4-0.2-0.6-0.2c0,0.1,0.1,0.3,0.3,0.4c0.3,0.2,0.7,0.2,0.7,0.2S13.6,19,13.4,18.7"
				/>
			<path fill="#8E7F33" d="M15.2,17.3c-0.5,0.2-0.8,0.5-1,0.9c0.2,0,0.9,0.1,1.2,0c0.7-0.2,1.2-0.9,1.2-0.9S15.8,17.2,15.2,17.3"/>
			<path fill="#8E7F33" d="M14.3,18.4c-0.4-0.1-0.6,0-0.9,0.2c0.2,0.1,0.5,0.3,0.8,0.3c0.5,0.1,1.1-0.1,1.1-0.1S14.8,18.5,14.3,18.4
				"/>
			<path fill="#8E7F33" d="M15.7,16.3c-0.2,0.6-0.6,0.8-1,1c0-0.3,0-0.8,0.1-1.2c0.2-0.7,0.9-1.3,0.9-1.3S15.9,15.7,15.7,16.3"/>
			<path fill="#8E7F33" d="M14.4,17.4c-0.1,0.4-0.3,0.6-0.5,0.7c0-0.2,0-0.6,0-0.8c0.1-0.4,0.4-0.9,0.4-0.9S14.5,16.9,14.4,17.4"/>
			<path fill="#8E7F33" d="M13.7,18c-0.1,0.3-0.2,0.4-0.4,0.5c0-0.1,0-0.4,0-0.6c0.1-0.3,0.3-0.6,0.3-0.6S13.8,17.6,13.7,18"/>
		</g>
	</g>
	<g>
		<path fill="#241F21" d="M20.2,16.9l-0.1-0.3L20,16.9l-0.3,0.8h0.9L20.2,16.9z M20.6,19c0,0,0-0.1,0-0.1c0,0,0-0.1,0-0.1H21
			l-0.3-0.8h-1.1l-0.3,0.7l0.1,0.2h0.2c0,0,0,0.1,0,0.1c0,0,0,0.1,0,0.1h-0.9c0,0,0-0.1,0-0.1c0,0,0-0.1,0-0.1H19l1.2-2.7h0.2
			l1.1,2.7h0.2c0,0,0,0.1,0,0.1c0,0,0,0.1,0,0.1H20.6z"/>
		<path fill="#241F21" d="M24.9,18.8c0.4,0,0.6-0.2,0.6-0.6c0-0.4-0.2-0.6-0.7-0.6h-0.3v1.1C24.6,18.7,24.8,18.8,24.9,18.8
			 M25.1,17.4c0.2-0.1,0.3-0.3,0.3-0.6c0-0.4-0.2-0.5-0.5-0.5h-0.3v1.1H25.1z M23.7,19c0,0,0-0.1,0-0.1c0,0,0-0.1,0-0.1h0.4v-2.5
			h-0.4c0,0,0-0.1,0-0.1c0,0,0-0.1,0-0.1h1.2c0.6,0,1,0.3,1,0.7c0,0.3-0.2,0.5-0.5,0.6l-0.2,0l0.2,0c0.4,0.1,0.6,0.3,0.6,0.7
			c0,0.5-0.5,0.8-1.1,0.8H23.7z"/>
		<path fill="#241F21" d="M29.1,17.5c0-0.8-0.4-1.2-1-1.2c-0.6,0-1,0.4-1,1.3c0,0.8,0.4,1.2,1,1.2C28.6,18.8,29.1,18.3,29.1,17.5
			 M26.6,17.5c0-0.9,0.7-1.5,1.5-1.5c0.8,0,1.5,0.6,1.5,1.5c0,0.9-0.7,1.5-1.5,1.5C27.2,19,26.6,18.4,26.6,17.5"/>
		<path fill="#241F21" d="M32.4,17.5c0-0.8-0.4-1.2-1-1.2c-0.6,0-1,0.4-1,1.3c0,0.8,0.4,1.2,1,1.2C32,18.8,32.4,18.3,32.4,17.5
			 M29.9,17.5c0-0.9,0.7-1.5,1.5-1.5c0.8,0,1.5,0.6,1.5,1.5c0,0.9-0.7,1.5-1.5,1.5C30.6,19,29.9,18.4,29.9,17.5"/>
		<path fill="#241F21" d="M35.5,18.9L35.5,18.9l-1.1-1.3l-0.2,0v1.2h0.3c0,0,0,0.1,0,0.1c0,0,0,0.1,0,0.1h-1.2c0,0,0-0.1,0-0.1
			c0,0,0-0.1,0-0.1h0.4v-2.5h-0.4c0,0,0-0.1,0-0.1c0,0,0-0.1,0-0.1h1.2c0,0,0,0.1,0,0.1c0,0,0,0.1,0,0.1h-0.3v1.1h0.2l1-1l0-0.1
			h-0.2c0,0,0-0.1,0-0.1c0,0,0-0.1,0-0.1h1c0,0,0,0.1,0,0.1c0,0,0,0.1,0,0.1h-0.2l-1.1,1.1l1.2,1.4h0.3c0,0,0,0.1,0,0.1
			c0,0,0,0.1,0,0.1H35.5z"/>
		<path fill="#241F21" d="M39.5,16.9l-0.1-0.3l-0.1,0.3L39,17.7h0.9L39.5,16.9z M39.9,18.9c0,0,0-0.1,0-0.1c0,0,0-0.1,0-0.1h0.4
			l-0.3-0.8h-1.1l-0.3,0.7l0.1,0.2h0.2c0,0,0,0.1,0,0.1c0,0,0,0.1,0,0.1H38c0,0,0-0.1,0-0.1c0,0,0-0.1,0-0.1h0.2l1.2-2.7h0.2
			l1.1,2.7H41c0,0,0,0.1,0,0.1c0,0,0,0.1,0,0.1H39.9z"/>
		<path fill="#241F21" d="M42.2,17.5h0.3c0.4,0,0.6-0.2,0.6-0.7c0-0.4-0.2-0.6-0.6-0.6h-0.3V17.5z M41.4,18.9c0,0,0-0.1,0-0.1
			c0,0,0-0.1,0-0.1h0.4v-2.5h-0.4c0,0,0-0.1,0-0.1c0,0,0-0.1,0-0.1h1.2c0.7,0,1,0.3,1,0.8c0,0.5-0.4,0.9-1.1,0.9h-0.3v1h0.4
			c0,0,0,0.1,0,0.1c0,0,0,0.1,0,0.1H41.4z"/>
		<path fill="#241F21" d="M45.2,16.9l-0.1-0.3L45,16.9l-0.3,0.8h0.9L45.2,16.9z M45.6,18.9c0,0,0-0.1,0-0.1c0,0,0-0.1,0-0.1h0.4
			l-0.3-0.8h-1.1l-0.3,0.7l0.1,0.2h0.2c0,0,0,0.1,0,0.1c0,0,0,0.1,0,0.1h-0.9c0,0,0-0.1,0-0.1c0,0,0-0.1,0-0.1h0.2l1.2-2.7h0.2
			l1.1,2.7h0.2c0,0,0,0.1,0,0.1c0,0,0,0.1,0,0.1H45.6z"/>
		<path fill="#241F21" d="M48.3,17.5c0.2-0.1,0.4-0.3,0.4-0.6c0-0.4-0.2-0.6-0.6-0.6h-0.3v1.2H48.3z M49,18.9L49,18.9l-0.9-1.2
			l-0.3-0.1v1.1h0.3c0,0,0,0.1,0,0.1c0,0,0,0.1,0,0.1H47c0,0,0-0.1,0-0.1c0,0,0-0.1,0-0.1h0.4v-2.5H47c0,0,0-0.1,0-0.1
			c0,0,0-0.1,0-0.1h1.2c0.6,0,1,0.3,1,0.8c0,0.4-0.3,0.7-0.7,0.8c0.1,0.1,0.3,0.2,0.4,0.4l0.6,0.7h0.2c0,0,0,0.1,0,0.1
			c0,0,0,0.1,0,0.1H49z"/>
		<path fill="#241F21" d="M52.4,16h-2.5l-0.1,0.6h0.2l0.1-0.2c0-0.1,0.1-0.1,0.1-0.1h0.6v2.5h-0.4c0,0,0,0.1,0,0.1c0,0,0,0.1,0,0.1
			h1.2c0,0,0-0.1,0-0.1c0,0,0-0.1,0-0.1h-0.4v-2.5H52c0,0,0.1,0,0.1,0.1l0.1,0.2h0.2L52.4,16z"/>
	</g>
</g>
<rect x="12" y="88" width="72" height="0.5"/>
<rect x="12" y="127" width="72" height="0.5"/>
<g>
	<path fill="#FFFFFF" d="M83.5,30.1c0,1.3-1.2,2.2-2.5,2.2c-1.4,0-2.4-0.7-2.4-2c0-0.8,0.5-1.4,1.6-2.2c-0.8-0.5-1.5-1.1-1.5-2.2
		c0-1.3,1.1-2.1,2.4-2.1c1.2,0,2.2,0.6,2.2,1.9c0,0.7-0.6,1.4-1.7,2.1C82.5,28.3,83.5,28.9,83.5,30.1z M79.6,30.4
		c0,1,0.6,1.4,1.4,1.4c0.8,0,1.3-0.5,1.3-1.4c0-0.8-0.7-1.3-1.7-2C79.9,29,79.6,29.7,79.6,30.4z M82.3,25.7c0-1-0.5-1.4-1.2-1.4
		c-0.7,0-1.2,0.4-1.2,1.4c0,0.8,0.6,1.3,1.4,1.8C81.9,26.9,82.3,26.3,82.3,25.7z"/>
</g>
<g>
	<path fill="#FFFFFF" d="M16,104.6c0,1.6-0.7,2.5-2,2.5c-1.3,0-1.9-0.8-2-2.1c-0.1-1.3-0.1-4.3-0.1-5.7s0-4.6,0-5.1
		c0-1.8,0.8-2.4,2.2-2.4c1.2,0,1.8,0.8,1.8,2.7c0,0.5,0,1.6,0,2.4h-1.2c0-0.8,0-2.3,0-2.9c0-0.6-0.3-0.9-0.8-0.9
		c-0.5,0-0.8,0.4-0.8,1c0,0.7,0,4.2,0,5.3c0,1.3,0,4.9,0,5.3c0.1,1,0.4,1.3,0.8,1.3c0.4,0,0.8-0.2,0.8-1.4c0-1,0-2.2,0-2.5H16
		C16,102.4,16,104.1,16,104.6z"/>
	<path fill="#FFFFFF" d="M20.9,94.2c0,0.7,0,3.6,0,5.1c0,1.7,0,4.3,0,5.2c-0.1,1.7-0.7,2.5-2.1,2.5s-2-0.8-2-2.5c0-0.4,0-3.6,0-5.3
		c0-1.4,0-4.5,0-5c0-1.7,0.6-2.6,2-2.6C20.2,91.6,20.8,92.4,20.9,94.2z M19.7,104.7c0-0.7,0-4.3,0-5.4c0-1,0-4.6,0-5.2
		c0-0.9-0.2-1.3-0.8-1.3c-0.7,0-0.8,0.5-0.8,1.3c0,0.6,0,4.1,0,5.2c0,1.2,0,4.7,0,5.4s0.2,1.1,0.8,1.1
		C19.4,105.9,19.6,105.3,19.7,104.7z"/>
	<path fill="#FFFFFF" d="M24.6,106.9l-1.5-9.9v9.9H22V91.7h1.3l1.5,10.8V91.7h1.1v15.2H24.6z"/>
	<path fill="#FFFFFF" d="M29.2,92.9v14.1H28V92.9h-1.3v-1.1h3.9v1.1H29.2z"/>
	<path fill="#FFFFFF" d="M31.4,106.9V91.7h3.4v1.1h-2.2v5.8h2v1.1h-2v6h2.2v1.1H31.4z"/>
	<path fill="#FFFFFF" d="M38.1,106.9l-1.5-9.9v9.9h-1.1V91.7h1.3l1.5,10.8V91.7h1.1v15.2H38.1z"/>
	<path fill="#FFFFFF" d="M42.7,92.9v14.1h-1.2V92.9h-1.3v-1.1h3.9v1.1H42.7z"/>
	<path fill="#FFFFFF" d="M48.7,107c-1.2,0-1.9-0.7-1.9-1.9V103h1.1v1.9c0,0.8,0.3,1.1,0.8,1.1c0.5,0,0.8-0.3,0.8-1.6
		c0-1.7-0.2-2.8-0.9-4.3c-0.2-0.4-0.5-1.1-0.7-1.5c-0.8-1.5-1.1-2.6-1.1-4.3c0-1.7,0.7-2.6,2-2.6c1.4,0,1.9,1,1.9,2.5
		c0,0.1,0,1.7,0,1.7h-1.2v-1.7c0-0.9-0.2-1.4-0.8-1.4c-0.6,0-0.8,0.4-0.8,1.6c0,1.2,0.3,2.3,1,3.6c0.2,0.4,0.5,1,0.7,1.4
		c0.7,1.5,1,2.9,1,4.8C50.7,106.3,50,107,48.7,107z"/>
	<path fill="#FFFFFF" d="M53.7,92.9v14.1h-1.2V92.9h-1.3v-1.1h3.9v1.1H53.7z"/>
	<path fill="#FFFFFF" d="M59.3,98.4c-0.1,0.4-0.4,0.9-0.7,1l1.2,7.5h-1.2l-1.1-7.2l-0.6,0v7.2h-1.1V91.7h1.8c1,0,1.5,0.6,1.8,1.6
		c0.1,0.4,0.2,1.3,0.2,2.5C59.6,97.1,59.5,97.9,59.3,98.4z M58.3,93.9c0-0.6-0.3-1-0.7-1H57c0,0,0,5.4,0,5.8c0,0,0.4,0,0.6,0
		c0.3,0,0.5-0.3,0.5-0.5c0.1-0.4,0.2-1.5,0.2-2.1C58.4,95.2,58.3,94,58.3,93.9z"/>
	<path fill="#FFFFFF" d="M61.4,106.9h-1.2l1.6-15.2h1.6l1.2,15.2h-1.2c0,0-0.2-3.3-0.2-3.7c0,0-1.5,0-1.5,0
		C61.7,103.6,61.4,106.9,61.4,106.9z M62.6,96c0-0.4-0.1-2.9-0.1-2.9s-0.1,2.5-0.1,2.9c0,0.5-0.6,6.1-0.6,6.1h1.3
		C63.1,102.1,62.6,96.4,62.6,96z"/>
	<path fill="#FFFFFF" d="M67.4,92.9v14.1h-1.2V92.9h-1.3v-1.1h3.9v1.1H67.4z"/>
	<path fill="#FFFFFF" d="M69.6,106.9V91.7H73v1.1h-2.2v5.8h2v1.1h-2v6H73v1.1H69.6z"/>
	<path fill="#FFFFFF" d="M76.7,106.9l-0.1-0.5c-0.2,0.4-0.7,0.6-1.2,0.6c-1,0-1.7-0.6-1.8-2c0-0.4-0.1-4.3-0.1-5.7
		c0-1.4,0-4.2,0-5.5c0-1.3,0.6-2.2,1.9-2.2c1.3,0,1.8,1,1.8,1.9c0,0.7,0,2.9,0,2.9h-1.2c0,0,0-1.5,0-2.6c0-0.8-0.2-1-0.7-1
		c-0.4,0-0.7,0.3-0.7,1.1c0,0.9,0,4.4,0,5.4c0,0.8,0,4.8,0,5.4c0,0.7,0.2,1.1,0.7,1.1c0.5,0,0.7-0.3,0.7-1c0-0.5,0-4.8,0-4.8h-1
		v-1.1h2.1c0,0,0,3.7,0,4.7c0,1.7,0,3.4,0,3.4H76.7z"/>
	<path fill="#FFFFFF" d="M81,101.3v5.7h-1.2v-5.6L78,91.7h1.2c0,0,1.2,6.8,1.2,7.6c0-0.8,1.2-7.6,1.2-7.6h1.2L81,101.3z"/>
	<path fill="#FFFFFF" d="M13.2,109.9v5.8h2.1v1.1h-2.1v7.1H12v-15.2h3.4v1.2H13.2z"/>
	<path fill="#FFFFFF" d="M20.1,111.2c0,0.7,0,3.6,0,5.1c0,1.7,0,4.3,0,5.2c-0.1,1.7-0.7,2.5-2.1,2.5s-2-0.8-2-2.5c0-0.4,0-3.6,0-5.3
		c0-1.4,0-4.5,0-5c0-1.7,0.6-2.6,2-2.6C19.4,108.6,20.1,109.4,20.1,111.2z M18.9,121.7c0-0.7,0-4.3,0-5.4c0-1,0-4.6,0-5.2
		c0-0.9-0.2-1.3-0.8-1.3c-0.7,0-0.8,0.5-0.8,1.3c0,0.6,0,4.1,0,5.2c0,1.2,0,4.7,0,5.4s0.2,1.1,0.8,1.1
		C18.7,122.9,18.9,122.3,18.9,121.7z"/>
	<path fill="#FFFFFF" d="M24.7,115.4c-0.1,0.4-0.4,0.9-0.7,1l1.2,7.5h-1.2l-1.1-7.2l-0.6,0v7.2h-1.1v-15.2h1.8c1,0,1.5,0.6,1.8,1.6
		c0.1,0.4,0.2,1.3,0.2,2.5C25,114.1,24.9,114.9,24.7,115.4z M23.7,110.9c0-0.6-0.3-1-0.7-1h-0.6c0,0,0,5.4,0,5.8c0,0,0.4,0,0.6,0
		c0.3,0,0.5-0.3,0.5-0.5c0.1-0.4,0.2-1.5,0.2-2.1C23.7,112.2,23.7,111,23.7,110.9z"/>
	<path fill="#FFFFFF" d="M33,123.9v-10.5l-1.3,10.5h-1l-1.2-10.5v10.5h-1.1v-15.2h1.5l1.3,11.4l1.4-11.4h1.4v15.2H33z"/>
	<path fill="#FFFFFF" d="M39.3,111.2c0,0.7,0,3.6,0,5.1c0,1.7,0,4.3,0,5.2c-0.1,1.7-0.7,2.5-2.1,2.5s-2-0.8-2-2.5c0-0.4,0-3.6,0-5.3
		c0-1.4,0-4.5,0-5c0-1.7,0.6-2.6,2-2.6C38.6,108.6,39.3,109.4,39.3,111.2z M38.1,121.7c0-0.7,0-4.3,0-5.4c0-1,0-4.6,0-5.2
		c0-0.9-0.2-1.3-0.8-1.3c-0.7,0-0.8,0.5-0.8,1.3c0,0.6,0,4.1,0,5.2c0,1.2,0,4.7,0,5.4s0.2,1.1,0.8,1.1
		C37.9,122.9,38,122.3,38.1,121.7z"/>
	<path fill="#FFFFFF" d="M42.8,123.9h-2.3v-15.2h2.2c0.8,0,1.5,0.4,1.6,1.2c0.1,0.4,0.1,1.8,0.1,2.5c0,0.8,0,2.2-0.1,2.6
		c-0.1,0.7-0.3,1.1-0.8,1.2c0.5,0.1,0.8,0.4,0.9,1c0.1,0.6,0.1,1.7,0.1,2.5c0,0.9,0,2.3-0.1,2.9C44.1,123.5,43.8,123.9,42.8,123.9z
		 M43.1,110.7c0-0.5-0.3-0.9-0.7-0.9h-0.8v5.9h1c0.2,0,0.5-0.2,0.5-0.7c0-0.3,0-1.4,0-2.3C43.2,111.9,43.1,111.1,43.1,110.7z
		 M43.2,119.6c0-0.6,0-1.7,0-2.1c0-0.5-0.2-0.7-0.5-0.7h-1.1v6h1c0.3,0,0.5-0.2,0.6-0.7C43.2,121.7,43.2,120.2,43.2,119.6z"/>
	<path fill="#FFFFFF" d="M45.6,123.9v-15.2h1.2v15.2H45.6z"/>
	<path fill="#FFFFFF" d="M48,123.9v-15.2h1.2v14.1h2.3v1.1H48z"/>
	<path fill="#FFFFFF" d="M52.3,123.9v-15.2h3.4v1.1h-2.2v5.8h2v1.1h-2v6h2.2v1.1H52.3z"/>
</g>
<g>
	<path fill="#FFFFFF" d="M14.2,85.1V85l-0.9-1.3l-0.2,0v1.2h0.3c0,0,0,0.1,0,0.1s0,0.1,0,0.1H12c0,0,0-0.1,0-0.1c0,0,0-0.1,0-0.1
		h0.4v-2.6H12c0,0,0-0.1,0-0.1s0-0.1,0-0.1h1.4c0,0,0,0.1,0,0.1s0,0.1,0,0.1H13v1.2h0.2l1.1-1l-0.1-0.2H14c0,0,0-0.1,0-0.1
		s0-0.1,0-0.1h1.2c0,0,0,0.1,0,0.1s0,0.1,0,0.1H15l-1.2,1.1l1.2,1.6h0.2c0,0,0,0.1,0,0.1s0,0.1,0,0.1H14.2z"/>
	<path fill="#FFFFFF" d="M16.1,85.2c-0.4,0-0.6-0.2-0.6-0.5c0-0.5,0.6-0.7,1.2-0.8v-0.6c0-0.1-0.2-0.2-0.4-0.2c0,0-0.1,0-0.1,0
		l-0.1,0.6h-0.2c-0.3,0-0.4-0.1-0.4-0.3c0-0.3,0.5-0.6,1-0.6c0.5,0,0.8,0.2,0.8,0.7c0,0.1,0,1.1,0,1.2c0,0,0.1,0,0.2,0
		c0.1,0,0.1,0,0.2-0.1l0,0.2c-0.1,0.1-0.2,0.2-0.4,0.2c-0.2,0-0.4-0.1-0.5-0.3C16.5,85.1,16.3,85.2,16.1,85.2z M16.7,84.1l-0.2,0.1
		c-0.2,0.1-0.3,0.2-0.3,0.4c0,0.2,0.1,0.3,0.3,0.3c0.1,0,0.2,0,0.2,0V84.1z"/>
	<path fill="#FFFFFF" d="M17.7,85.1c0,0,0-0.1,0-0.1c0-0.1,0-0.1,0-0.1H18v-1.4l-0.3-0.3V83l0.8-0.2h0.1l0.1,0.5
		c0.3-0.4,0.4-0.5,0.6-0.5c0.2,0,0.4,0.2,0.4,0.3c0,0.2-0.1,0.3-0.2,0.4l-0.1,0.1L19,83.4c-0.1,0-0.1,0-0.3,0.1v1.3H19
		c0,0,0,0.1,0,0.1c0,0.1,0,0.1,0,0.1H17.7z"/>
	<path fill="#FFFFFF" d="M21.8,84.6c-0.2,0.3-0.5,0.6-0.9,0.6c-0.7,0-1.1-0.4-1.1-1.1c0-0.7,0.5-1.2,1.1-1.2c0.6,0,0.9,0.3,0.9,0.8
		c0,0.1,0,0.2,0,0.2h-1.4c0,0,0,0.1,0,0.1c0,0.4,0.3,0.7,0.7,0.7c0.2,0,0.4-0.1,0.6-0.2L21.8,84.6z M21.2,83.6c0-0.1,0-0.1,0-0.1
		c0-0.1,0-0.2,0-0.3c0-0.1,0-0.1-0.1-0.1c0,0-0.1,0-0.2,0c-0.1,0-0.1,0-0.2,0c0,0-0.1,0-0.1,0c-0.1,0.1-0.1,0.3-0.2,0.4H21.2z"/>
	<path fill="#FFFFFF" d="M23.6,85.1c0,0,0-0.1,0-0.1s0-0.1,0-0.1h0.2v-1.4c-0.1-0.1-0.2-0.1-0.3-0.1c-0.1,0-0.3,0-0.5,0.1v1.4h0.2
		c0,0,0,0.1,0,0.1c0,0.1,0,0.1,0,0.1h-1.2c0,0,0-0.1,0-0.1s0-0.1,0-0.1h0.3v-1.4l-0.3-0.3V83l0.8-0.2H23l0.1,0.4
		c0.3-0.3,0.5-0.4,0.8-0.4c0.4,0,0.7,0.2,0.7,0.7v1.3h0.3c0,0,0,0.1,0,0.1s0,0.1,0,0.1H23.6z"/>
	<path fill="#FFFFFF" d="M29,85.1c0,0,0-0.1,0-0.1c0,0,0-0.1,0-0.1h0.4v-2l0-0.5l-1.1,2.8H28l-0.8-2.4L27,82.3l0,2.4l0.1,0.1h0.3
		c0,0,0,0.1,0,0.1s0,0.1,0,0.1h-1.1c0,0,0-0.1,0-0.1c0,0,0-0.1,0-0.1h0.2l0.1-0.1l0.1-2.5h-0.4c0,0,0-0.1,0-0.1s0-0.1,0-0.1h1.3
		l0.6,1.8l0.2,0.6l0.2-0.6l0.7-1.8h1.2c0,0,0,0.1,0,0.1s0,0.1,0,0.1h-0.4v2.6h0.4c0,0,0,0.1,0,0.1s0,0.1,0,0.1H29z"/>
	<path fill="#FFFFFF" d="M32.7,84.6c-0.2,0.3-0.5,0.6-0.9,0.6c-0.6,0-1.1-0.4-1.1-1.1c0-0.7,0.5-1.2,1.2-1.2c0.6,0,0.8,0.2,0.8,0.5
		c0,0.3-0.2,0.4-0.5,0.4h-0.1l-0.1-0.5c0,0-0.1,0-0.2,0c-0.2,0-0.5,0.2-0.5,0.8c0,0.5,0.3,0.8,0.7,0.8c0.2,0,0.4-0.1,0.6-0.2
		L32.7,84.6z"/>
	<path fill="#FFFFFF" d="M36,83.9v1c-0.3,0.1-0.7,0.2-1.1,0.2c-1.1,0-1.9-0.6-1.9-1.6c0-1.1,0.8-1.7,1.8-1.7c0.3,0,0.6,0.1,0.8,0.2
		l0.1-0.2h0.4v0.8l-0.3,0.1l-0.2-0.4c-0.1-0.1-0.4-0.1-0.7-0.1c-0.7,0-1.1,0.4-1.1,1.4c0,0.8,0.4,1.3,1.1,1.3c0.1,0,0.3,0,0.4,0
		v-0.9H35c0,0,0-0.1,0-0.1s0-0.1,0-0.1h1.3c0,0,0,0.1,0,0.1s0,0.1,0,0.1H36z"/>
	<path fill="#FFFFFF" d="M36.6,85.1c0,0,0-0.1,0-0.1c0-0.1,0-0.1,0-0.1h0.3v-1.4l-0.3-0.3V83l0.8-0.2h0.1l0.1,0.5
		c0.3-0.4,0.4-0.5,0.6-0.5c0.2,0,0.4,0.2,0.4,0.3c0,0.2-0.1,0.3-0.2,0.4l-0.1,0.1l-0.4-0.2c-0.1,0-0.1,0-0.3,0.1v1.3h0.3
		c0,0,0,0.1,0,0.1c0,0.1,0,0.1,0,0.1H36.6z"/>
	<path fill="#FFFFFF" d="M39.4,85.2c-0.4,0-0.6-0.2-0.6-0.5c0-0.5,0.6-0.7,1.2-0.8v-0.6c0-0.1-0.2-0.2-0.4-0.2c0,0-0.1,0-0.1,0
		l-0.1,0.6h-0.2c-0.3,0-0.4-0.1-0.4-0.3c0-0.3,0.5-0.6,1-0.6c0.5,0,0.8,0.2,0.8,0.7c0,0.1,0,1.1,0,1.2c0,0,0.1,0,0.2,0
		c0.1,0,0.1,0,0.2-0.1l0,0.2c-0.1,0.1-0.2,0.2-0.4,0.2c-0.2,0-0.4-0.1-0.5-0.3C39.8,85.1,39.6,85.2,39.4,85.2z M40,84.1l-0.2,0.1
		c-0.2,0.1-0.3,0.2-0.3,0.4c0,0.2,0.1,0.3,0.3,0.3c0.1,0,0.2,0,0.2,0V84.1z"/>
	<path fill="#FFFFFF" d="M42.5,85.1c0,0,0-0.1,0-0.1s0-0.1,0-0.1h0.2v-1.4c-0.1-0.1-0.2-0.1-0.3-0.1c-0.1,0-0.3,0-0.5,0.1v1.4h0.2
		c0,0,0,0.1,0,0.1c0,0.1,0,0.1,0,0.1H41c0,0,0-0.1,0-0.1s0-0.1,0-0.1h0.3v-1.4L41,83.1V83l0.8-0.2h0.1l0.1,0.4
		c0.3-0.3,0.5-0.4,0.8-0.4c0.4,0,0.7,0.2,0.7,0.7v1.3h0.3c0,0,0,0.1,0,0.1s0,0.1,0,0.1H42.5z"/>
	<path fill="#FFFFFF" d="M45.9,84.6c-0.2,0.3-0.5,0.6-0.9,0.6c-0.7,0-1.1-0.4-1.1-1.1c0-0.7,0.5-1.2,1.1-1.2c0.6,0,0.9,0.3,0.9,0.8
		c0,0.1,0,0.2,0,0.2h-1.4c0,0,0,0.1,0,0.1c0,0.4,0.3,0.7,0.7,0.7c0.2,0,0.4-0.1,0.6-0.2L45.9,84.6z M45.3,83.6c0-0.1,0-0.1,0-0.1
		c0-0.1,0-0.2,0-0.3c0-0.1,0-0.1-0.1-0.1c-0.1,0-0.1,0-0.2,0c-0.1,0-0.1,0-0.2,0c0,0-0.1,0-0.1,0c-0.1,0.1-0.2,0.3-0.2,0.4H45.3z"/>
</g>
</svg>
