<?xml version="1.0" encoding="utf-8"?>
<!-- Generator: Adobe Illustrator 16.2.1, SVG Export Plug-In . SVG Version: 6.00 Build 0)  -->
<!DOCTYPE svg PUBLIC "-//W3C//DTD SVG 1.1//EN" "http://www.w3.org/Graphics/SVG/1.1/DTD/svg11.dtd">
<svg version="1.1" id="_x39__1_" xmlns="http://www.w3.org/2000/svg" xmlns:xlink="http://www.w3.org/1999/xlink" x="0px" y="0px"
	 width="100px" height="154px" viewBox="0 0 100 154" enable-background="new 0 0 100 154" xml:space="preserve">
<rect y="28" fill="#FF993D" width="100" height="126"/>
<g>
	<path fill="#FFFFFF" d="M13.37,102.703c-0.496,0-0.755-0.023-1.133-0.094v-1.393c0.307,0.023,0.519,0.047,0.897,0.023
		c0.85,0,1.015-0.472,1.015-1.228V83.795h1.511v16.193C15.66,101.924,14.999,102.703,13.37,102.703z"/>
	<path fill="#FFFFFF" d="M19.459,102.821c-1.535,0-2.479-0.874-2.479-2.667c0-0.165,0-16.358,0-16.358h1.463c0,0,0,15.556,0,16.193
		c0,1.086,0.331,1.393,0.991,1.393c0.685,0,0.921-0.377,0.921-1.369c0-0.614,0-16.217,0-16.217h1.463c0,0,0,16.193,0,16.358
		C21.82,101.83,21.041,102.821,19.459,102.821z"/>
	<path fill="#FFFFFF" d="M25.218,102.821c-1.534,0-2.384-0.874-2.384-2.408v-2.667h1.369v2.384c0,0.991,0.377,1.345,0.944,1.345
		c0.638,0,0.992-0.425,0.992-1.982c0-2.125-0.26-3.447-1.086-5.288c-0.212-0.449-0.637-1.346-0.897-1.865
		c-0.968-1.912-1.417-3.257-1.417-5.358c0-2.125,0.921-3.281,2.502-3.281c1.7,0,2.313,1.274,2.337,3.139
		c0,0.118,0.023,2.125,0.023,2.125h-1.44v-2.077c0-1.109-0.189-1.747-0.944-1.747c-0.708,0-0.944,0.542-0.944,1.982
		c0,1.511,0.401,2.904,1.204,4.415c0.283,0.543,0.614,1.18,0.897,1.771c0.921,1.912,1.298,3.635,1.298,5.925
		C27.673,101.877,26.776,102.821,25.218,102.821z"/>
	<path fill="#FFFFFF" d="M31.354,85.212v17.468h-1.487V85.212h-1.676v-1.417h4.863v1.417H31.354z"/>
	<path fill="#FFFFFF" d="M36.781,102.68V83.795h4.226v1.417h-2.762v7.223h2.431v1.416h-2.431v7.412h2.785v1.417H36.781z"/>
	<path fill="#FFFFFF" d="M45.088,102.68l-1.841-12.251v12.251h-1.322V83.795h1.582l1.889,13.361V83.795h1.345v18.884H45.088z"/>
	<path fill="#FFFFFF" d="M53.184,86.864c0,0.85,0.023,4.438,0.023,6.302c0,2.078,0,5.288-0.023,6.515
		c-0.071,2.078-0.826,3.14-2.549,3.14s-2.455-0.991-2.502-3.092c-0.024-0.52-0.024-4.509-0.024-6.539c0-1.747,0-5.618,0.024-6.255
		c0.047-2.172,0.779-3.234,2.502-3.234C52.287,83.701,53.113,84.669,53.184,86.864z M51.649,99.965
		c0.047-0.826,0.047-5.311,0.047-6.751c0-1.274,0-5.712-0.023-6.468c-0.023-1.086-0.26-1.558-1.015-1.558
		c-0.85,0-1.015,0.614-1.015,1.582c0,0.779-0.024,5.146-0.024,6.515c0,1.44,0,5.878,0.024,6.68c0.023,0.803,0.236,1.393,1.039,1.393
		C51.39,101.358,51.602,100.72,51.649,99.965z"/>
	<path fill="#FFFFFF" d="M56.889,102.821c-1.535,0-2.479-0.874-2.479-2.667c0-0.165,0-16.358,0-16.358h1.463c0,0,0,15.556,0,16.193
		c0,1.086,0.331,1.393,0.991,1.393c0.685,0,0.921-0.377,0.921-1.369c0-0.614,0-16.217,0-16.217h1.463c0,0,0,16.193,0,16.358
		C59.249,101.83,58.47,102.821,56.889,102.821z"/>
	<path fill="#FFFFFF" d="M64.394,102.68l-0.071-0.661c-0.236,0.52-0.874,0.779-1.463,0.779c-1.298,0-2.148-0.732-2.219-2.455
		c-0.023-0.52-0.071-5.358-0.071-7.105c0-1.747-0.023-5.264,0.047-6.774c0.047-1.582,0.803-2.786,2.384-2.786
		c1.676,0,2.219,1.228,2.29,2.361c0.023,0.897,0,3.635,0,3.635h-1.44c0,0,0-1.865,0-3.187c0-0.968-0.307-1.274-0.85-1.274
		c-0.52,0-0.897,0.377-0.897,1.393c0,1.133-0.024,5.406-0.024,6.657c0,0.944,0.024,5.925,0.024,6.728c0,0.92,0.283,1.393,0.92,1.393
		c0.59,0,0.92-0.425,0.92-1.298c0-0.59,0-5.996,0-5.996h-1.227v-1.417h2.644c0,0,0,4.58,0,5.783c0,2.148,0.023,4.226,0.023,4.226
		H64.394z"/>
	<path fill="#FFFFFF" d="M70.01,102.68v-8.829h-1.912v8.829h-1.464V83.795h1.464v8.64h1.912v-8.64h1.464v18.884H70.01z"/>
	<path fill="#FFFFFF" d="M17.076,113.104c-0.165,0.472-0.519,1.086-0.826,1.204l1.534,9.371H16.25l-1.345-8.923l-0.732,0.023v8.899
		h-1.417v-18.884h2.243c1.298,0,1.912,0.708,2.195,1.959c0.118,0.542,0.189,1.652,0.189,3.139
		C17.383,111.452,17.289,112.42,17.076,113.104z M15.754,107.439c-0.047-0.708-0.354-1.228-0.874-1.228h-0.685c0,0,0,6.704,0,7.176
		c0.024,0,0.543,0,0.755-0.047c0.401-0.047,0.567-0.354,0.661-0.661c0.165-0.449,0.236-1.818,0.236-2.549
		C15.849,109.163,15.778,107.675,15.754,107.439z"/>
	<path fill="#FFFFFF" d="M18.75,123.68v-18.884h4.226v1.417h-2.762v7.223h2.431v1.416h-2.431v7.412H23v1.417H18.75z"/>
	<path fill="#FFFFFF" d="M25.831,123.821c-1.534,0-2.384-0.874-2.384-2.408v-2.667h1.369v2.384c0,0.991,0.377,1.345,0.944,1.345
		c0.638,0,0.992-0.425,0.992-1.982c0-2.125-0.26-3.447-1.086-5.288c-0.212-0.449-0.637-1.346-0.897-1.865
		c-0.968-1.912-1.417-3.257-1.417-5.358c0-2.125,0.921-3.281,2.502-3.281c1.7,0,2.313,1.274,2.337,3.139
		c0,0.118,0.023,2.125,0.023,2.125h-1.44v-2.077c0-1.109-0.189-1.747-0.944-1.747c-0.708,0-0.944,0.542-0.944,1.982
		c0,1.511,0.401,2.904,1.204,4.415c0.283,0.543,0.614,1.18,0.897,1.771c0.921,1.912,1.298,3.635,1.298,5.925
		C28.286,122.877,27.389,123.821,25.831,123.821z"/>
	<path fill="#FFFFFF" d="M29.394,123.68v-18.884h4.226v1.417h-2.762v7.223h2.431v1.416h-2.431v7.412h2.785v1.417H29.394z"/>
	<path fill="#FFFFFF" d="M35.341,123.68h-1.44l1.959-18.884h1.959l1.534,18.884h-1.463c0,0-0.26-4.083-0.283-4.603
		c0,0-1.889,0-1.912,0C35.695,119.596,35.341,123.68,35.341,123.68z M36.875,110.154c0-0.472-0.118-3.612-0.118-3.612
		s-0.142,3.116-0.166,3.588c-0.047,0.661-0.755,7.53-0.755,7.53h1.676C37.513,117.66,36.875,110.626,36.875,110.154z"/>
	<path fill="#FFFFFF" d="M44.546,113.104c-0.165,0.472-0.519,1.086-0.826,1.204l1.534,9.371H43.72l-1.345-8.923l-0.732,0.023v8.899
		h-1.417v-18.884h2.243c1.298,0,1.912,0.708,2.195,1.959c0.118,0.542,0.189,1.652,0.189,3.139
		C44.853,111.452,44.758,112.42,44.546,113.104z M43.224,107.439c-0.047-0.708-0.354-1.228-0.874-1.228h-0.685c0,0,0,6.704,0,7.176
		c0.024,0,0.543,0,0.755-0.047c0.401-0.047,0.567-0.354,0.661-0.661c0.165-0.449,0.236-1.818,0.236-2.549
		C43.318,109.163,43.248,107.675,43.224,107.439z"/>
	<path fill="#FFFFFF" d="M51.13,120.776c0,1.959-0.921,3.045-2.502,3.045c-1.628,0-2.384-0.991-2.479-2.644
		c-0.071-1.629-0.071-5.335-0.071-7.082c0-1.747,0.024-5.712,0.024-6.373c0.047-2.266,1.039-3.021,2.714-3.021
		c1.534,0,2.266,1.039,2.29,3.305c0,0.661,0,1.936,0,2.927h-1.463c0-1.039,0.023-2.88,0-3.635c-0.023-0.779-0.425-1.109-1.015-1.109
		c-0.637,0-1.015,0.472-1.015,1.298c-0.024,0.826-0.024,5.217-0.024,6.609c0,1.629,0.024,6.114,0.047,6.633
		c0.071,1.298,0.448,1.629,1.039,1.629c0.52,0,1.015-0.26,1.015-1.747c0-1.204,0-2.738,0-3.045h1.44
		C51.13,118.109,51.13,120.233,51.13,120.776z"/>
	<path fill="#FFFFFF" d="M55.661,123.68v-8.829h-1.912v8.829h-1.464v-18.884h1.464v8.64h1.912v-8.64h1.464v18.884H55.661z"/>
</g>
<rect fill="#FFFFFF" width="100" height="28"/>
<path fill="#231F20" d="M81,38c5.523,0,10-4.478,10-10s-4.477-10-10-10c-5.522,0-10,4.478-10,10S75.478,38,81,38"/>
<g>
	<g>
		<path fill="#ECE6D4" d="M17,17.624c0,1.38-1.12,2.499-2.5,2.499c-1.38,0-2.5-1.119-2.5-2.499c0-1.381,1.119-2.5,2.5-2.5
			C15.88,15.124,17,16.243,17,17.624"/>
		<g>
			<path fill="#8E7F33" d="M13.369,18.736c-0.19-0.154-0.373-0.245-0.639-0.169c0.044,0.139,0.116,0.256,0.273,0.36
				c0.298,0.2,0.691,0.242,0.691,0.242S13.648,18.963,13.369,18.736"/>
			<path fill="#8E7F33" d="M15.196,17.349c-0.536,0.164-0.784,0.478-1.036,0.851c0.189,0.044,0.924,0.06,1.227-0.027
				c0.723-0.208,1.182-0.925,1.182-0.925S15.832,17.153,15.196,17.349"/>
			<path fill="#8E7F33" d="M14.287,18.361c-0.415-0.101-0.639,0.043-0.896,0.23c0.193,0.112,0.544,0.27,0.778,0.325
				c0.492,0.117,1.09-0.066,1.09-0.066S14.779,18.479,14.287,18.361"/>
			<path fill="#8E7F33" d="M15.696,16.341c-0.17,0.569-0.616,0.785-0.987,0.98c0.008-0.308,0.017-0.841,0.113-1.161
				c0.203-0.675,0.856-1.283,0.856-1.283S15.899,15.665,15.696,16.341"/>
			<path fill="#8E7F33" d="M14.435,17.36c-0.067,0.378-0.323,0.554-0.495,0.709c-0.021-0.197-0.011-0.58,0.027-0.792
				c0.08-0.448,0.428-0.886,0.428-0.886S14.515,16.912,14.435,17.36"/>
			<path fill="#8E7F33" d="M13.734,17.98c-0.053,0.28-0.219,0.361-0.391,0.466c-0.013-0.148-0.007-0.406,0.023-0.563
				c0.063-0.333,0.322-0.647,0.322-0.647S13.798,17.648,13.734,17.98"/>
		</g>
	</g>
	<g>
		<path fill="#241F21" d="M20.241,16.899l-0.099-0.345l-0.109,0.345l-0.332,0.785h0.862L20.241,16.899z M20.645,18.954
			c-0.009-0.032-0.013-0.067-0.013-0.104c0-0.036,0.004-0.068,0.013-0.104h0.363l-0.35-0.839h-1.053l-0.281,0.676l0.068,0.163h0.25
			c0.009,0.032,0.014,0.068,0.014,0.104c0,0.037-0.004,0.072-0.014,0.104h-0.875c-0.009-0.032-0.014-0.067-0.014-0.104
			c0-0.042,0.004-0.068,0.014-0.104h0.2l1.18-2.727h0.19l1.148,2.727h0.232c0.009,0.032,0.014,0.068,0.014,0.104
			c0,0.037-0.005,0.072-0.014,0.104H20.645z"/>
		<path fill="#241F21" d="M24.912,18.75c0.399,0,0.608-0.196,0.608-0.567c0-0.377-0.218-0.599-0.685-0.599h-0.322v1.144
			C24.58,18.736,24.821,18.75,24.912,18.75 M25.075,17.379c0.159-0.072,0.295-0.291,0.295-0.576c0-0.354-0.186-0.531-0.549-0.531
			h-0.308v1.107H25.075z M23.691,18.954c-0.009-0.032-0.014-0.067-0.014-0.104c0-0.036,0.005-0.068,0.014-0.104h0.372v-2.473h-0.372
			c-0.009-0.036-0.014-0.068-0.014-0.104c0-0.037,0.005-0.073,0.014-0.104h1.193c0.641,0,0.967,0.254,0.967,0.721
			c0,0.304-0.213,0.545-0.485,0.631l-0.191,0.045l0.191,0.019c0.408,0.068,0.64,0.331,0.64,0.689c0,0.535-0.458,0.785-1.125,0.785
			H23.691z"/>
		<path fill="#241F21" d="M29.055,17.479c0-0.786-0.417-1.234-0.984-1.234c-0.577,0-1.008,0.44-1.008,1.293
			c0,0.786,0.417,1.234,0.984,1.234C28.624,18.772,29.055,18.333,29.055,17.479 M26.555,17.538c0-0.903,0.734-1.52,1.516-1.52
			c0.803,0,1.493,0.558,1.493,1.461c0,0.903-0.735,1.521-1.516,1.521C27.245,19,26.555,18.442,26.555,17.538"/>
		<path fill="#241F21" d="M32.446,17.479c0-0.786-0.417-1.234-0.985-1.234c-0.576,0-1.008,0.44-1.008,1.293
			c0,0.786,0.418,1.234,0.985,1.234C32.015,18.772,32.446,18.333,32.446,17.479 M29.945,17.538c0-0.903,0.735-1.52,1.516-1.52
			c0.803,0,1.493,0.558,1.493,1.461c0,0.903-0.735,1.521-1.516,1.521C30.636,19,29.945,18.442,29.945,17.538"/>
		<path fill="#241F21" d="M35.496,18.936v-0.063l-1.089-1.257l-0.163-0.046v1.158h0.336c0.009,0.032,0.013,0.068,0.013,0.104
			s-0.004,0.072-0.013,0.104h-1.157c-0.009-0.032-0.014-0.067-0.014-0.104s0.004-0.068,0.014-0.104h0.372v-2.473h-0.372
			c-0.009-0.037-0.014-0.068-0.014-0.105c0-0.036,0.004-0.072,0.014-0.104h1.157c0.009,0.031,0.013,0.067,0.013,0.104
			c0,0.037-0.004,0.068-0.013,0.105h-0.336v1.13h0.163l0.994-0.98l-0.032-0.149h-0.24c-0.009-0.037-0.014-0.068-0.014-0.105
			c0-0.036,0.005-0.067,0.014-0.104H36.1c0.009,0.036,0.014,0.067,0.014,0.104c0,0.037-0.005,0.068-0.014,0.105h-0.223l-1.139,1.08
			l1.212,1.393h0.254c0.009,0.036,0.013,0.068,0.013,0.104s-0.004,0.072-0.013,0.104H35.496z"/>
		<path fill="#241F21" d="M39.5,16.881l-0.101-0.345l-0.109,0.345l-0.331,0.785h0.862L39.5,16.881z M39.903,18.936
			c-0.009-0.032-0.013-0.067-0.013-0.104s0.004-0.068,0.013-0.104h0.363l-0.349-0.84h-1.053l-0.282,0.676l0.068,0.164h0.25
			c0.009,0.032,0.014,0.068,0.014,0.104s-0.005,0.072-0.014,0.104h-0.876c-0.009-0.032-0.014-0.067-0.014-0.104
			c0-0.042,0.004-0.068,0.014-0.104h0.2L39.404,16h0.19l1.149,2.728h0.231c0.009,0.032,0.013,0.068,0.013,0.104
			s-0.004,0.072-0.013,0.104H39.903z"/>
		<path fill="#241F21" d="M42.191,17.534h0.335c0.373,0,0.594-0.227,0.594-0.662c0-0.426-0.204-0.617-0.594-0.617h-0.335V17.534z
			 M41.369,18.936c-0.009-0.032-0.013-0.067-0.013-0.104c0-0.042,0.004-0.068,0.013-0.104h0.373v-2.473h-0.373
			c-0.009-0.037-0.013-0.068-0.013-0.105c0-0.036,0.004-0.072,0.013-0.104h1.221c0.657,0,1.017,0.317,1.017,0.826
			c0,0.513-0.396,0.871-1.081,0.871h-0.335v0.985h0.413c0.009,0.032,0.014,0.068,0.014,0.104s-0.005,0.072-0.014,0.104H41.369z"/>
		<path fill="#241F21" d="M45.159,16.881l-0.1-0.345l-0.109,0.345l-0.332,0.785h0.862L45.159,16.881z M45.563,18.936
			c-0.009-0.032-0.014-0.067-0.014-0.104s0.005-0.068,0.014-0.104h0.363l-0.35-0.84h-1.053l-0.281,0.676l0.068,0.164h0.25
			c0.008,0.032,0.014,0.068,0.014,0.104s-0.005,0.072-0.014,0.104h-0.876c-0.009-0.032-0.014-0.067-0.014-0.104
			c0-0.042,0.004-0.068,0.014-0.104h0.2L45.064,16h0.19l1.148,2.728h0.231c0.009,0.032,0.014,0.068,0.014,0.104
			s-0.005,0.072-0.014,0.104H45.563z"/>
		<path fill="#241F21" d="M48.323,17.488c0.246-0.091,0.445-0.272,0.445-0.644c0-0.423-0.186-0.59-0.577-0.59h-0.34v1.234H48.323z
			 M49.049,18.936v-0.063l-0.858-1.152l-0.34-0.05v1.058H48.2c0.009,0.032,0.013,0.068,0.013,0.104s-0.004,0.072-0.013,0.104h-1.17
			c-0.009-0.032-0.014-0.067-0.014-0.104c0-0.042,0.004-0.068,0.014-0.104h0.372v-2.473H47.03c-0.009-0.037-0.014-0.068-0.014-0.105
			c0-0.036,0.004-0.072,0.014-0.104h1.225c0.64,0,0.989,0.281,0.989,0.789c0,0.359-0.28,0.695-0.744,0.776
			c0.145,0.1,0.286,0.231,0.399,0.396l0.581,0.721h0.205c0.009,0.032,0.013,0.068,0.013,0.104s-0.004,0.072-0.013,0.104H49.049z"/>
		<path fill="#241F21" d="M52.394,16.046h-2.482l-0.068,0.558h0.245l0.118-0.227c0.041-0.082,0.059-0.113,0.1-0.122h0.621v2.473
			h-0.372c-0.009,0.036-0.014,0.063-0.014,0.104c0,0.037,0.005,0.073,0.014,0.104h1.193c0.009-0.032,0.014-0.068,0.014-0.104
			c0-0.036-0.005-0.072-0.014-0.104h-0.373v-2.473h0.622c0.041,0.009,0.059,0.041,0.1,0.122l0.118,0.227h0.245L52.394,16.046z"/>
	</g>
</g>
<rect x="12" y="80.5" width="72" height="0.5"/>
<rect x="12" y="127" width="72" height="0.5"/>
<g>
	<path fill="#FFFFFF" d="M80.558,28.52c-1.027,0-2.041-0.741-2.041-2.262c0-1.573,1.222-2.483,2.496-2.483
		c1.456,0,2.483,0.962,2.483,2.743c0,2.119-1.209,4.329-4.433,5.798l-0.338-0.39c2.236-1.235,3.367-2.964,3.484-4.238
		C81.819,28.247,81.299,28.52,80.558,28.52z M79.713,26.153c0,1.131,0.468,1.716,1.313,1.716c0.832,0,1.3-0.663,1.3-1.716
		c0-1.183-0.468-1.82-1.3-1.82S79.713,24.944,79.713,26.153z"/>
</g>
<g>
	<path fill="#FFFFFF" d="M11.965,77.11c-0.01-0.035-0.015-0.095-0.015-0.135c0-0.045,0.005-0.105,0.015-0.145h0.35v-2.627h-0.35
		c-0.01-0.04-0.015-0.1-0.015-0.14s0.005-0.105,0.015-0.14h2.042l0.06-0.13h0.365v0.726l-0.335,0.055l-0.095-0.23
		c-0.025-0.07-0.055-0.12-0.085-0.135h-0.886v1.156h0.841c0.03-0.035,0.07-0.115,0.085-0.195l0.015-0.085h0.31v0.846h-0.31
		l-0.015-0.08c-0.015-0.085-0.05-0.16-0.085-0.2h-0.841v1.176h0.315c0.476,0,0.641-0.025,0.701-0.07l0.155-0.375h0.335l-0.055,0.731
		H11.965z"/>
	<path fill="#FFFFFF" d="M14.87,77.11c-0.01-0.035-0.015-0.08-0.015-0.135c0-0.055,0.005-0.095,0.015-0.135h0.29v-1.412l-0.28-0.315
		v-0.085l0.781-0.195h0.08l0.065,0.526c0.266-0.421,0.436-0.526,0.646-0.526c0.235,0,0.36,0.15,0.36,0.326
		c0,0.16-0.075,0.295-0.21,0.405l-0.085,0.07l-0.396-0.235c-0.055,0-0.135,0.02-0.295,0.13v1.312h0.315
		c0.01,0.04,0.015,0.085,0.015,0.135c0,0.055-0.005,0.1-0.015,0.135H14.87z"/>
	<path fill="#FFFFFF" d="M16.955,77.11c-0.01-0.035-0.015-0.08-0.015-0.135c0-0.055,0.005-0.095,0.015-0.135h0.29v-1.412
		l-0.28-0.315v-0.085l0.856-0.195h0.09v2.007h0.286c0.01,0.04,0.015,0.08,0.015,0.135c0,0.055-0.005,0.1-0.015,0.135H16.955z
		 M17.17,74.117c0-0.221,0.115-0.386,0.38-0.386c0.25,0,0.371,0.175,0.371,0.386c-0.005,0.215-0.12,0.38-0.375,0.38
		C17.285,74.497,17.17,74.322,17.17,74.117z"/>
	<path fill="#FFFFFF" d="M20.012,77.11V77l-0.565-0.861l-0.181-0.075v0.776h0.271c0.01,0.04,0.015,0.08,0.015,0.135
		c0,0.055-0.005,0.1-0.015,0.135H18.31c-0.01-0.035-0.015-0.08-0.015-0.135c0-0.055,0.005-0.095,0.015-0.135h0.29v-2.758
		l-0.28-0.291v-0.085l0.866-0.21h0.08v2.362h0.175l0.641-0.561l-0.055-0.145h-0.215c-0.01-0.04-0.015-0.075-0.015-0.13
		s0.005-0.1,0.015-0.14h1.106c0.01,0.04,0.015,0.085,0.015,0.14s-0.005,0.09-0.015,0.13h-0.2l-0.761,0.621l0.746,1.066h0.226
		c0.01,0.04,0.015,0.085,0.015,0.135c0,0.06-0.005,0.1-0.015,0.135H20.012z"/>
	<path fill="#FFFFFF" d="M21.801,77.16c-0.351,0-0.581-0.195-0.581-0.531c0-0.491,0.561-0.701,1.166-0.75v-0.611
		c-0.05-0.1-0.215-0.18-0.395-0.18c-0.035,0-0.07,0.005-0.085,0.01l-0.105,0.606h-0.165c-0.28,0-0.396-0.08-0.396-0.265
		c0-0.301,0.45-0.606,1.031-0.606c0.465,0,0.771,0.24,0.771,0.706c0,0.075-0.035,1.136-0.035,1.247c0.04,0.025,0.09,0.04,0.155,0.04
		c0.06,0,0.115-0.02,0.16-0.065l0.025,0.18c-0.065,0.125-0.225,0.221-0.385,0.221c-0.22,0-0.396-0.075-0.545-0.275
		C22.181,77.105,21.991,77.16,21.801,77.16z M22.386,76.059l-0.23,0.065c-0.23,0.06-0.306,0.165-0.306,0.365
		c0,0.21,0.09,0.305,0.301,0.305c0.075,0,0.18-0.02,0.235-0.045V76.059z"/>
	<path fill="#FFFFFF" d="M26.827,77.11c-0.01-0.035-0.015-0.095-0.015-0.135c0-0.045,0.005-0.105,0.015-0.145h0.351v-1.171h-1.341
		v1.171h0.35c0.01,0.035,0.015,0.105,0.015,0.145s-0.005,0.1-0.015,0.135h-1.416c-0.01-0.035-0.015-0.095-0.015-0.135
		c0-0.045,0.005-0.105,0.015-0.145h0.35v-2.627h-0.35c-0.01-0.04-0.015-0.1-0.015-0.14s0.005-0.105,0.015-0.14h1.416
		c0.01,0.035,0.015,0.1,0.015,0.14s-0.005,0.105-0.015,0.14h-0.35v1.151h1.341v-1.151h-0.351c-0.01-0.04-0.015-0.1-0.015-0.14
		s0.005-0.105,0.015-0.14h1.417c0.01,0.035,0.015,0.1,0.015,0.14s-0.005,0.105-0.015,0.14h-0.35v2.627h0.35
		c0.01,0.035,0.015,0.105,0.015,0.145s-0.005,0.1-0.015,0.135H26.827z"/>
	<path fill="#FFFFFF" d="M29.196,77.16c-0.35,0-0.581-0.195-0.581-0.531c0-0.491,0.561-0.701,1.166-0.75v-0.611
		c-0.05-0.1-0.215-0.18-0.396-0.18c-0.035,0-0.07,0.005-0.085,0.01l-0.105,0.606h-0.165c-0.28,0-0.396-0.08-0.396-0.265
		c0-0.301,0.451-0.606,1.031-0.606c0.466,0,0.771,0.24,0.771,0.706c0,0.075-0.035,1.136-0.035,1.247
		c0.04,0.025,0.09,0.04,0.155,0.04c0.06,0,0.115-0.02,0.16-0.065l0.025,0.18c-0.065,0.125-0.225,0.221-0.385,0.221
		c-0.22,0-0.396-0.075-0.545-0.275C29.576,77.105,29.386,77.16,29.196,77.16z M29.781,76.059l-0.23,0.065
		c-0.23,0.06-0.305,0.165-0.305,0.365c0,0.21,0.09,0.305,0.3,0.305c0.075,0,0.181-0.02,0.235-0.045V76.059z"/>
	<path fill="#FFFFFF" d="M30.815,77.11c-0.01-0.035-0.015-0.08-0.015-0.135c0-0.055,0.005-0.095,0.015-0.135h0.29v-2.758
		l-0.28-0.291v-0.085l0.866-0.21h0.08v3.344h0.285c0.01,0.04,0.015,0.08,0.015,0.135c0,0.055-0.005,0.1-0.015,0.135H30.815z"/>
	<path fill="#FFFFFF" d="M32.17,77.11c-0.01-0.035-0.015-0.08-0.015-0.135c0-0.055,0.005-0.095,0.015-0.135h0.29v-2.758l-0.28-0.291
		v-0.085l0.866-0.21h0.08v3.344h0.286c0.01,0.04,0.015,0.08,0.015,0.135c0,0.055-0.005,0.1-0.015,0.135H32.17z"/>
</g>
</svg>
